<svg id="desktop" xmlns="http://www.w3.org/2000/svg" viewBox="0 0 97.52 258.24"><defs><style>.cls-1{fill:#93c90e}</style></defs><path class="cls-1" d="M97.31.42v.17a.2.2 0 0 0 0-.17zm0 56.81v.4c.08-.11.15-.23.21-.33zM35.15 213.49a3.91 3.91 0 0 0 .57.24h.2a.66.66 0 0 0-.77-.24zM32.86 229l-.08.08c.1.04.1.01.08-.08zM26 234.07l.64.39c-.06-.15-.64-.39-.15-.38.45.26 1.6.72 1.36.27a5.71 5.71 0 0 0-1.85-.28zm2.52-9.64l.1.06.4-.06-.1-.07-.4.07zm6.25-.49c-1-.3-.07.21-.51.19.35.06 1.19.34.51-.19zm36.33-2.28l.19-.17c-.15-.02-.19.07-.19.17zm-44.59 16.71l.09.07.29-.05h.06zm4.96-18.62c-.81-.28-.26.44.16.62-.29-.2-.14-.37-.16-.62zm43.59 14.55c.45.21.76.39.69.49l.09-.11c.06-.17-.18-.36-.34-.55-.07.1-.25.13-.44.17zm-47.48-8.1l.47.33-.02-.24-.45-.09zm53.49-.85zm-47.94-5.46c-.41-.34-.05-.31-.79-.6-.07 0-.15.34-.66.1l.73.45c-.09-.23.59-.09.72.05zm37.94 2.2l-.23-.17a1.25 1.25 0 0 0 .23.17zm-42.02 5.82c.23.05 0-.16.24-.11.48.24.4.17.46.07-.26.02-1.02-.37-.7.04zm3.68-10.39l.5-.16c-.28-.2.08-.17-.4-.34.08.23-.99-.02-.1.5zm1.36-2.73l.16.06a1.08 1.08 0 0 1-.21-.22c-.11-.02-.19-.01.05.16zm-4.25 13a.18.18 0 0 0-.09.08c.06-.01.1-.02.09-.08zm2.56-2.51c-.26 0-1.52-.33-1 .24l.39-.06v.08l.48.16c-1.27-.53.03-.32.13-.42zm-10.45 18.1l.71.22-.57-.4-.14.18z"/><path class="cls-1" d="M28.47 234.8l-.2-.52c-1.07-.28-.1.22.2.52zm.06.2s0-.1-.06-.17zm52.65-9.47l-.11-.18a.17.17 0 0 0 .11.18zM29.69 227c-1-.65-1-.08-.9.22.3.04-.09-.63.9-.22zm-5.26 11.78a.63.63 0 0 0-.3-.05c.15.05.28.08.3.05zm41.87 3.7a2.13 2.13 0 0 0-1.23.17l-.37-.4.41.09-.27-.5c-.35-.09-.41.17-.72.19.08.06.36.83.57 1.11l.53-.21c-.19 0-.35.59-.34.86.23.12.77 0 .29-.34.36.14.16.54.66.48.2.5-.35.81-.64.94l-.6-.27c-.35.12.61.53.13.64.07-.41-.67-.28-.56-.58-.27 0-.61-.32-.72 0 .64.64-.63 0-.08.62-.32 0-.37-.4-.63-.16.22.54.52.68 1.06 1 .33-.23-.53-.73-.26-.91l.68 1c.18 0 .24-.08.23-.16 0-.14-.19-.31-.13-.4a1.37 1.37 0 0 0 .48.1c-.25.05-.35.16-.35.3a.8.8 0 0 0 .25.47l.22.26c.16-.28.3-.53.56-.45l.25.18c.3 0 .2-.23 0-.42a.24.24 0 0 1-.06.11v-.16c.11-.27-.13-.73.25-.6l.2.23a2.45 2.45 0 0 1 .28-.81.33.33 0 0 0 .1.12c-.49-1.3-.49-2.1-.19-2.5zm-1.58.29l-.08-.26c.41.09.06.21.08.26zm-41.89-1.71l.1-.1-.28-.2.18.3zm1.46-6.24l.52-.08c-.57-.23-1.35-.27-1 .17h1zm8.57-5.82l.13-.12c-.49-.18-.19.03-.13.12zm-9.18 9.53a.77.77 0 0 0-.18-.18c0 .05.08.11.18.18zM76 225.48a1.06 1.06 0 0 0-.5-.13l.37.27zm-48.29 11.81h-.35c.13.05.27.1.35 0zM73.13 90.22c.41.21.45-.2.87.2v.2c0-.3 1 .46.68-.16l-.06.21c-.11-.37-.94-.17-1-.67.01-.2-.62-.06-.49.22zM25.65 235.5a1.46 1.46 0 0 0-.72-.22c.21.05.39.28.72.22zm1.07.81c0-.08-.08.34-.09.5.29.04.54-.25.09-.5z"/><path class="cls-1" d="M24.67 239.06c-.22 0-.23.12-.55 0-.16-.15-.17-.32 0-.34a3.07 3.07 0 0 1-.45-.2c.3.36.31.91.08 1.08.31.28 1 .25 1.29.29-2.13-.89.26-.27-.37-.83zm49.45-11.78a.24.24 0 0 0 .31 0c.06-.09.13-.17.2-.26a.7.7 0 0 1-.2-.18c-.12.06-.3 0-.62-.17.88.14-.4-.51-.06-.69-.35-.29-.56.1-.44.27.42.36.26.75.81 1.03zm-.04.54v-.13a.91.91 0 0 0-.45.68 18.56 18.56 0 0 0 1.46 1.94c.35.09.07-.2.24-.29l-.28-.08c.31-.39.7-.75 1-1.13-1.55.19-2.67.25-1.97-.99zm-.86 1.86l.06-.31a.39.39 0 0 1-.27-.1c-.26.18-.01.25.21.41zm-48.24 4.96l-.52-.19-.03.02.55.17zm9.56-11.32c-.42-.18-.37.14-.84-.19l-.06-.15c.09.23-1.06-.41-.59.09v-.16c.18.29.9.18 1 .56.11.16.64.07.49-.15zm41.74 1.81l.15-.15a.23.23 0 0 0-.15.15zm-43.79 2.65c-1.08-.48.28.36-.37.3.51.25.71 0 1.1.15-.06-.15-.58-.23-.9-.34-.03-.08.04-.09.17-.11zm-7.64 6.31l-.51.32.12.04.39-.36zm7.97-20.48v.24c0-.09.13 0 .29 0 .25.28-.3.13-.5.16a3.78 3.78 0 0 1 1.27.32c-.12-.27-.24-.58-1.06-.72zm37.43 21.63v-.11c-.86.12.35 1.32-.63 1.5v.07l.43.36.25-.29-.15.4c-.17.09-.33-.24-.56-.16.08.27.1.59.52.47 0 .13-.44.18-.4.41a.4.4 0 0 1 .12.2.4.4 0 0 1-.12-.2c-.26-.23-.78 0-.81.1-.48-.32 0-.63-.12-1-.05-.05-.09-.1-.07-.16a.33.33 0 0 1 .07.16.55.55 0 0 1 .14.13c0-.74.66.27.73-.4v-.06l-.07-.06a3.57 3.57 0 0 0-.89-1.18l.12.44c-.49-.37-.36.06-.5.26l-.54-.52c.25 0 .49-.32.34-.39 0 .11 1 0 1-.37-.44-.21-.58.46-1.15-.17.18.38-.27.18-.24.5-.18-.39-.56-.37-.78-.71l-.06.47c-.15-.07 0-.74-.72-.7.14.27-.37.54.1.79l-.15-.06c-.26.24.59.48.13.69.23.13.43.15.45 0s-.36-.35-.3-.61c.42.09-.19.24.51.42.34.08 0-.73.65-.2l-.25.24c.46.25.32.45.7.64.08.27-.54.16-.23.56.26.23.89.4.49.57a1 1 0 0 0-1.09.94l.18.39c.29.13.19-.46.48-.11l-.07.41-.17-.12c-.1.09 0 .32.07.48-.27-.29 0-.48-.52-.68-.18.11-.37 0-.36.24a.93.93 0 0 0 0 .14.93.93 0 0 1 0-.14.22.22 0 0 0-.12-.13c-.39.22.37.61.48.78.45.67.77 0 1.25.28l-.26 1.13a.88.88 0 0 0-.44-.41c-.36.12-.38-.2-.54.15.68.33.19.65.44 1.1-.33 0-.4 0-.27-.29-.45-.2-.46.21-.56.31.07.12.07.27.13.4a.62.62 0 0 1 .58.51l.09.06c.3-.29 1.06-.58.73-1l.19.18c.58-.21-.31-1.29.6-1 .31.19.12 0 .58.22l-.2-.49.17.17.17-.56.08.06-.74-1.14c-.2-.1-.27-.12-.38-.28s0-.2 0-.25l-.13-.14c-.08-.06-.22-.12-.18-.22-.13-.16-.14-.22 0 0l.08-.07c.2.07.18.16.1.3l.11.15c.13-.09.46 0 .66-.1l-.2.49a1.34 1.34 0 0 0 1.07.27c0 .1.21.29.31.19-.08-.06 0-.42-.39-.46.12-.51 1.41-.75 1.11-1.78.14.7.67-.14.52.47.76-.08-.37-.61-.08-1 .22.08-.13.2.21.49.56-.52-.32-1.55.18-2.08l.45.21v-.48c-1.04-.36-2.02-.61-2.33.38zm-2.34 4.23c-.09-.13.12-.14.17-.23a.11.11 0 0 0 0-.12.11.11 0 0 1 0 .12c.03.13.08.21-.17.23zm3.57-4.69v.32l-.09-.33zm-.68.78c.12 0 .11-.31.32-.23.43.35-.22.13-.32.23zm1.95-5.85c0 .38-.25 0-.49-.1.47.26.16-.14.19-.24l-.6-.06c-.19-.23.54-.16 0-.36-.43.32-.43.53-.49 1h.47c0 .58-.8-.08-1 .43.24.39-.37.75.33 1.13-.18-.18-.79 0-.56.31.54.53.33 1.14.71 1.12.09-.15-.16-.54.33-.44v.37H72c-.18 0 .17.2.71.43v-.44l-.16-.54c-.28.13-.83 0-.89-.41.17.12.43.15.48.31.37-.07.86-.38.14-.61.41.72-.87-.35-.58.2-.34-.39-.06-.45-.16-.71a.6.6 0 0 1-.09-.15.6.6 0 0 0 .09.15 1 1 0 0 0 1.12.23c0-.16.21-.4.13-.67-.43-.15-.57-.42-.83-.19a.31.31 0 0 1 .26-.44c0 .11 0 .26.16.33.43.07.49-.08.68-.07v-.22h-.16zm-1.43 2.49a.33.33 0 0 1 .09-.36c.3.16.05.37-.09.36zm-46.64 3.13a.41.41 0 0 1 .25-.05.34.34 0 0 0-.25.05zM85.34 71.32h-.32c.23.17.41.51.32 0zm-.69-.04h.37c-.12-.07-.26-.13-.37 0zm-1.57 3.13v.22zm2.36-1.89c0 .09.2-.46.25-.68-.31-.02-.69.37-.25.68zM79.5 85c.91.8 1.08 0 1-.35-.27 0-.04.86-1 .35zm.96-1.22c-.23 0 0 .22-.29.17-.45-.29-.39-.2-.49-.06.32-.05 1.02.42.78-.11zm6.38-8.45l.65-.46-.11-.05-.54.51zm.26-1.58a.33.33 0 0 0 .29-.08.46.46 0 0 1-.29.08zm-.72-.24a1.12 1.12 0 0 0 .72.24c-.21-.05-.34-.33-.72-.24zm-3.28 1.12l.06.67c1.09.32.18-.3-.06-.67zm1.99.82c-.41-.31-1.53-.85-1.4-.27.94.18 1.34.39 1.94.24l-.58-.42c.01.15.58.42.04.45zm-8.46 7.1l.11-.11c-.11 0-.12.05-.11.11zm20.63-72.13c-.9.26.3 1.52-.74 1.87v.07l.44.37.27-.38-.17.5c-.18.13-.33-.24-.58-.11.06.31.07.68.52.48 0 .16-.48.28-.45.54a.34.34 0 0 1 .12.22.4.4 0 0 1-.12-.22c-.26-.23-.81.13-.85.23-.49-.31 0-.74-.07-1.13 0 0-.09-.1-.07-.17a.41.41 0 0 1 .07.17.92.92 0 0 1 .14.14c0-.87.68.23.78-.58v-.06l-.06-.06c-.21-.52-.19-.49-.87-1.28l.11.5c-.5-.37-.39.13-.55.38l-.53-.55c.26-.07.53-.45.37-.51 0 .13 1.09-.14 1.07-.57-.46-.18-.64.63-1.2 0 .16.43-.29.25-.28.62-.17-.43-.57-.36-.79-.73l-.08.56c-.16-.06 0-.87-.72-.73.13.31-.41.69.06.93l-.08-.11c-.28.32.59.49.1.81.24.12.44.11.47-.07s-.35-.37-.28-.68c.43.05-.21.31.51.42.36.06.09-.87.7-.32l-.28.32c.47.24.31.49.7.67.06.31-.57.26-.27.69.26.24.91.35.48.61-.85 0-1.14.89-1.19 1.27l.16.43c.3.12.23-.57.52-.2l-.11.5-.16-.12c-.12.13 0 .37 0 .56-.28-.31 0-.56-.51-.74-.2.16-.4.11-.4.35a1.37 1.37 0 0 0 0 .16 1.37 1.37 0 0 1 0-.16.19.19 0 0 0-.11-.15c-.42.32.35.68.46.86.44.74.8-.14 1.29.16l-.33 1.38a.77.77 0 0 0-.44-.43c-.38.19-.39-.18-.57.26.69.3.15.74.4 1.24-.35 0-.42 0-.27-.31-.46-.18-.49.32-.61.45.07.14.06.31.12.45a.56.56 0 0 1 .58.53l.09.06c.33-.38 1.14-.83.83-1.32l.18.18c.62-.32-.26-1.49.69-1.32.32.18.12-.06.59.18l-.18-.53.18.19.2-.69.08.06c-.28-.51-.51-.92-.71-1.25-.2-.1-.28-.11-.38-.29s0-.23 0-.29l-.13-.15c-.09-.06-.23-.11-.19-.23-.12-.18-.12-.25 0 0l.09-.09c.21.05.18.17.09.34l.11.17c.13-.12.48-.08.7-.22l-.2.55a1.13 1.13 0 0 0 1.1.18c0 .08.08.19.19.21v-.37a.27.27 0 0 0-.25-.16 1 1 0 0 1 .25-.4V10.5zm-2.66 5.46c-.08-.14.14-.18.2-.29a.16.16 0 0 0 0-.15.16.16 0 0 1 0 .15c.02.15.07.24-.2.29zM73.68 94.67c.35.42 0 .41.68.75.08 0 .27-.47.75-.18l-.66-.55c.03.31-.68.16-.77-.02zm0-5.53c-.38 0-1.21-.37-.62.29.94.33.13-.28.62-.29z"/><path class="cls-1" d="M79.56 84a.44.44 0 0 0 .12-.11c-.06.01-.11.03-.12.11zm-6.14 13.78l-.59.25c.25.24-.13.23.34.42-.02-.3 1.07-.05.25-.67zm3.21-15.23l-.17.16c.46.29.2 0 .17-.16zm3.39 5.81l-.08-.08-.45.11.09.08.44-.11zm1.13-2.81l-.04.31.47.09-.43-.4zm-4.37 1.66v-.1l-.48-.19c1.21.63-.11.43-.25.57.3-.07 1.56.34 1.19-.39zm.1-3.21c0 .1-.06.12-.22.16 1 .56-.19-.46.5-.43-.48-.29-.76 0-1.16-.12 0 .23.56.3.88.39zm11.79-14.91a.54.54 0 0 0 .31 0c-.15-.01-.29-.04-.31 0zM72.19 103v-.32c-.06.12-.15 0-.31 0-.18-.36.37-.19.59-.24a2.78 2.78 0 0 1-1.29-.35c.11.34.16.74 1.01.91zM34.24 214.61a3.08 3.08 0 0 0-.34-.24 2.15 2.15 0 0 0 .14.26c.11.01.25.05.2-.02zm36.69-112.88a1.35 1.35 0 0 0 .3.29 2 2 0 0 0-.08-.33c-.15-.01-.26-.04-.22.04zm-2.1 1.33a.54.54 0 0 0 .78.21 2.93 2.93 0 0 0-.56-.27zm2.31-1.58l-.16-.06a.65.65 0 0 1 .17.27c.12.02.21 0-.01-.21zm-3.49-3.94c.21-.15 1.2.53.91-.11-.29.17-1.19-.43-.91.11zm18.63-27.77l-.09-.08-.32.08-.08.07zm-49.41 148c-.19 0-.35 0 0 .32.18-.03.19-.19 0-.32zM97.31 20.9v-.18a.5.5 0 0 0-.18.09.31.31 0 0 1 .18.09zM69.08 97.3a.24.24 0 0 0-.11.43c.22-.05.38.01.11-.43zm6.38-3.36c.25.24 0 .49 0 .81.79.32.4-.61 0-.81zM38.14 218c-.17.11-1.22-.45-.82.05.23-.15 1.19.35.82-.05zM87.67 74.32l-.59.14c.56.27 1.4.27 1.2-.29l-1.15.07zm-.81.29l.52.21.03-.03-.55-.18zm5.89-54.93a2.18 2.18 0 0 0-1.29.36l-.37-.42.43.05-.26-.55c-.36-.06-.43.25-.77.32.08.06.34.93.55 1.23l.55-.32c-.19.07-.39.76-.39 1.07.23.12.8-.14.32-.44.37.11.13.62.66.48.19.56-.41 1-.72 1.2l-.61-.24c-.37.19.61.55.09.74.11-.5-.68-.23-.55-.61-.27 0-.62-.3-.75.08.64.67-.66.13-.12.75-.33.06-.37-.43-.65-.12.21.62.51.74 1.06 1 .35-.31-.52-.8-.22-1.05l.65 1.11c.2-.05.25-.13.25-.23 0-.15-.18-.33-.12-.45a1.27 1.27 0 0 0 .5 0c-.26.1-.37.24-.38.4a.81.81 0 0 0 .24.53l.21.29c.18-.36.35-.68.62-.62l.25.18c.32 0 .22-.31.07-.5a.57.57 0 0 1-.08.13v-.19L92 24c.12-.34-.1-.85.29-.75l.19.25a3.59 3.59 0 0 1 .34-1 .33.33 0 0 0 .1.12c-.56-1.48-.47-2.43-.17-2.94zm-1.67.56l-.08-.31c.44.07.07.25.08.31zm-1.67 49.14a.62.62 0 0 0 .15.21c.01-.06-.05-.14-.15-.21zM27.06 237.23h.3c-.25-.13-.49-.4-.3 0zM90.94 66.11l.25.24-.11-.38-.14.14zm1.57-3.02l.21-.26-.72-.23.51.49z"/><path class="cls-1" d="M88.31 67.65c2.09 1-.35.39.17 1.08.24 0 .3-.17.61 0 .13.19.09.41-.11.45a1.64 1.64 0 0 1 .43.24 1.37 1.37 0 0 1 .23-1.42c-.26-.4-1.02-.32-1.33-.35zM19.35 246.72h.12c-.09-.11-.11-.08-.12 0zm-.73.67c1 .4.73-.42.73-.67a1 1 0 0 0-.73.67zm2.02.18l.43-.15c-.17.1-.61-.15-.43.15zm-.53-.49l.07-.17-.42-.02.35.19zm3.67-16.57l-.55-.23a2.4 2.4 0 0 0 .55.23zm2.11.02a.45.45 0 0 1-.16.09c.12-.02.17-.03.16-.09zm-2.25.52v.14c.04-.02.04-.08 0-.14zm-3.07 8.25h.8c-.37-.08-.97-.3-.8 0zm11.59-9.41l.27.17c.01-.06-.13-.13-.27-.17zm-1.86 2.69h-.09a3.5 3.5 0 0 0 .37.2zm-6.51-.58H24c-.17-.1-.24-.1-.21 0zm9.49-2.69a1.36 1.36 0 0 0 .69.19 5.39 5.39 0 0 0-.69-.19zm-7.39 1.22zm4.11 2.99l-.22.09c.16.02.27.01.22-.09zm-8.37 5.81h-.26c.13.03.23.04.26 0zm-2.42 6.27a1.5 1.5 0 0 0 .47.06c-.22-.08-.43-.16-.47-.06zm12.5-31.41a2 2 0 0 0 .25.07c-.17-.09-.31-.13-.25-.07z"/><path class="cls-1" d="M38.88 218.1l-.32-.11c-.12-.14.11-.1.24-.12l-.48-.17c.42-.55-.52-1.22.29-1.67 0-.23-.2 0-.46-.09s.15-.34.38-.3c-.74-.29-.66.1-1.12-.39.42 0-.71-.21-.44-.42l1 .34c-.08-.23-.69-.38-.49-.58.53-.08.87.84 1.22.46.05-.25-1.88-1.49-1.18-1.68-.3-.6-1.51-.49-1-.89h-.76c-.22-.21-.7-.37-.4-.5.39.1.91.18 1 .08-.92.15-.83-.92-1.94-.91l.11-.15a.43.43 0 0 1-.2-.08v-.25c-.27 0-.51.32-1.1-.15v-.4a7.15 7.15 0 0 1-1.11-.56l-1.43.47c.32.11.58.07.86.27.15.38-.64-.06-.34.38l.45.09c-.16-.06-.22-.05-.25-.13-.22-.21.1-.09.35 0 .48.33 0 .4-.37.3-.09.34.89.51 1 .65-.93-.25-.23.53-.72.52l.62.15c.56.56-.1.5-.36.54l.48.17c-.24.28 1.21 1.19-.52.65l.32.11c.07.21.31.57-.23.47a1.13 1.13 0 0 1 .44.31c-.66-.23-.25.14-.23.39.22-.05 1 .38 1.27.34.68.7-1-.16-1.15.1.34.35.52.08.84.19-.63.18 1.48 1.72-.26 1.18l-.43-.42c-.43 0-.46.07-.3.13 0-.08.13 0 .29 0 .6.88-1.55.16-1.45.8a6.85 6.85 0 0 1 .71.21c.2.37-1.68-.55-1.22.11l.39.1c.15.22-.4.06-.5 0 1.37.68-.43.71 1.24 1.83-.83-.19-1.66 0-1.32.37.71.62 1 .25 1.73.71-.08.17-.88-.11-.74.27-.76-.36-1.31-1.25-2-1l.37.27c0-.08-.15-.22 0-.24.52.08.48.33.67.46l-.48.4c-.84-.35-.5-.57-.69-.7 0 .49.93 1.56.21 1.67l.32.11c-.93.15 1.35 1-.14.75.11.31.9.35.81.69 0 .09-.32-.11-.42-.18-.47.24.7.54-.22.52l.9.35c-.8.12-2.51-.18-2.31.36.67.3.71.05 1.26.21-1.43-.1-.71 1.08-1.57 1.22-.5-.41-1.42-.43-1.75-.94.9.34.4-.07.57-.18-2-.66.41 1.48-1.25.77l.63.39c-.13 0-.72 0-.87-.28l.19.71c.58.07 1.92.26 1.25-.2.78.2.37.43 1.24.7-1.26-.21.37.43 0 .65-.89-.62-1.47-.29-1.93-.53.13.2-.44.23-.81.17-.19.15.36 1-.12 1.13a3.26 3.26 0 0 1 1.45.35c-.42 0-.5.16.2.53 1.57.08-1.55-1-.46-1.06.87.27 1.13.23 1.5.09a7 7 0 0 0 1.17.71c-1.87-.52-.57.74-1.61.74-.59-.07-1.6-.73-2-.43l-.36-.59c.3.61-.54-.16-.88.06l.61.15c0 .24-.11.26-.57.17l.94.26c.06.15.08.39-.43.14a4.12 4.12 0 0 0 .5.29c-.15-.05-.26 0-.29.09.13 0 .1-.1.35 0-.42.36.88.56.66.8a.78.78 0 0 1 .49.4c-1.35-.66-1.8-.19-2.62-.41l-.72.11c.14 0 .47.24.56.42.16.22 1.54.57 1 .74h-.49c.06 0 .25.12.35.19H24c1.12.91-1 .22-.53.87-.06-.15.11-.26.49 0 .12.15-.08.18-.3.13l.16.06-1.16.26c.48.17.7-.19 1.13.23s-.18.27-.28.37c-.35-.19-.56-.56-.86-.43.16.11.43.5.73.52a4.51 4.51 0 0 1-1.59.18.43.43 0 0 0 .39.1l-.09-.07c.26 0 .92.43.68 0 1.19.54.14.54.19.86h1c1.29 1.42-.87 1.43-1.2 2.05-.27-.36.15-.35-.77-.77-.63.18-.41.23-.78.53h.06c.37.43-.67.27.09.8.55.15-.33-.52.69 0l-.32.46c.68.13.32-.46.55-.58 0-.16-.27.21-.9-.18.25-.45 1-.23 2 0 .77.2.62.55.58.64-1.19-.22-1.89 0-1.64.66l.65.62c-.81-.11-2.14-.88-2.17-.39l.62.15c.17.2.22.29.19.33.51 0 1.07.07 1.58.12 1.07.81-.9.39-1.31.62.16.05.27 0 .59.07 0 .64-1.63.49-2 .8.43.41.5-.16 1.23.29-.4.06.16.62-.58.33 1.06.41-.16.52 1 .58.08 1-1.25 1.33-2.19 1.8a3.7 3.7 0 0 1 .77.37c.11-.26.58-.49 1.35-.29.44.42-.88.06-.6.25.29 0 .37-.13.88.11.46.5-.41.23-.58.33l-.21-.21c-.93.15-1.9-.59-1.87.05.53.49.51.25 1.27.62-.35 0 .29.76-.58.49l.08-.34c-.32.11-.41.32-.75.34a1.23 1.23 0 0 0 .43.12c-.33.05-.37.3-.92.14l.79.45c-.31-.28-.22-.62.26-.45.7.38.1.47.09.64.52-.49 1.8.12 1.51-.64h-.29c-.47-.61.71-.44.82-.73a1.25 1.25 0 0 0 .57.35c-.34-.92.43-1.29.39-2.17l.9.18-.6-.31c-.11-.47.89.35.94.1 0 .09-.13 0-.29 0 .88 0-.47-.49-.17-.62-.7-.21-.44.31-1.26-.21.89-.06.8-.85 2.3-.19-.24-1 1.13-1.48 1.56-2-.22-.21-.23-.05-.42-.18 1 .17-.2-1.11.56-.74a4.27 4.27 0 0 0-.88-.67 1.36 1.36 0 0 0 .92-.23l-.29.05-.09-.07.4-.06c.46-.39.55-1.05 1.59-1.1-.63 0-.89-.51-1.25-.53 1.32.36 1.61-.17 1.7-.67a2.83 2.83 0 0 0-.67-.31H29l-.32-.11c0-.57 1.59-.42 1.16-1-.23.12-.49 0-.9-.18a1.53 1.53 0 0 1 .91-.82l-.27-.09c-.06-.16.3-.13.5-.16l-.61-.31c.38-.06.19-.47.79-.46-.62-.42.9-.27.75-.67.19 0-.81-.12-.64-.39 1.35.6.22-.36 1.65.31l-.39-.51.73.29c-1.22-.86.76 0 .49-.56a1.93 1.93 0 0 1-.32-.11c.2 0 .41-.23.68.13.08-.17.69-.59-.19-.7.42.18 0 .25-.24.28-.61-.31-.24-.44-.87-.83l.3.06-.36-.22c.83 0 .5-.55 1.48-.36-.18-.11-.3-.23-.2-.32l.77.36.1-.36-1.19-.38c0-.49 1.35-.14 1.68-.35-1.23-.7.78-.37-.23-1.18l-.46.07c.48-.4-.24-.85.42-1.12a3.56 3.56 0 0 0 .73 1.59c-.24-.85 1.22-.68.74-1.58-.32-.11-.58-.07-.83-.35.71.21.23-.53 1-.07-.18-.3-.88-.67-.94-.83l1.22-.11h-.16c-1.31-1.83 2.06-1.22 1.77-2.55l-.41-.18.66.04c-.49 0-.48-.33-.83-.52l1.19-.19c-.35-.19-1.18-.54-1.09-.31-.31-.44.67-.27.81-.45l-.39-.11.4-.06-.51-.24c.4-.23.08-.91.95-.64l-.83-.35h.82l-.65-.06c.04-.57.98-.88 1.01-.97zm-7.41 1.65c0 .24-.13.42.16.62-.42-.18-.97-.9-.16-.62zm-2.85 4.74l-.1-.06.4-.07.09.07zm-1 1.71l.45.09v.24zM22 243.38l.14-.18.57.4zm.88-2.32l-.18-.3.28.2zm5.81-13.33l-.1-.06.27-.21zm.15-.51c-.11-.3-.11-.87.9-.22-1.04-.41-.65.26-.95.22zm-3.33 2.51c.87.31.65-.51 2.28.5-.42 0 1.06 1-.06.57l.05-.24c-.07 0-.63 0-.61.25-1.32-.93.3 0-.09-.63-.25.46-1.08-.18-1.62-.45zm-.61 4.36l-.39.36.52.19-.55-.16h-.12zm-1.09.82c-.3-.44.48-.4 1-.17l-.52.08.51.09zm.9 6.75l.21-.19c0 .07-.3.12.08.23-.11.01-.15.1-.34-.04zm-.9-2c.23-.17.22-.72-.08-1.08-.1-.07-.18-.13-.18-.18a.77.77 0 0 1 .18.18 3.07 3.07 0 0 0 .45.2.63.63 0 0 1 .3.05s-.15 0-.3-.05-.17.19 0 .34c.32.11.33 0 .55 0 .63.56-1.76 0 .38.84-.35-.1-1.04-.07-1.35-.35zm1.17-4.33a.41.41 0 0 0-.25.05.34.34 0 0 1 .25-.05 1.46 1.46 0 0 1 .72.22c-.38.01-.56-.22-.77-.27zm1.7 1.53c0-.16.06-.58.09-.5.4.2.15.49-.14.45zm.73.45h.35c-.08.1-.22.05-.35 0h-.3c-.24-.48 0-.21.25-.05zm.06-2.28c0 .09-.57.17-1.43-.26a3.58 3.58 0 0 0 1.6.16c-.18-.03-.25-.02-.22.07zm-1-.9c-.49 0 .09.23.15.38l-.64-.39a5.71 5.71 0 0 1 1.85.28c.22.4-.93-.06-1.38-.32zm1.53 1.3c-.05-.15-.17-.46.25-.28zm.55-.41l-.06-.17c-.3-.3-1.27-.81-.2-.52l.2.52c.05.02.08.08.04.15zm.67-1.4c-.05.25-.8.12-1.33-.2.23-.12.25-.44 1-.23-.52-.14.93.36.31.38zm.06-1.15h.49v.08zm.49-4.55c-.06.1 0 .17-.46-.07-.23-.05 0 .16-.24.11-.32-.41.44 0 .7 0a.18.18 0 0 1 .09-.08c-.01-.03-.05-.02-.11-.01zm3.36-15.36l.87.44-.87-.27zm.84.68a1.84 1.84 0 0 1 .52.17 2.17 2.17 0 0 1-.52-.17c-.25 0-.38.05-.21.28.42.18.2 0 .33-.05s.25.28 0 .31a6.82 6.82 0 0 0-1.3-.68c-.21-.56.56-.16 1.21.09zm-1.62 1.55c0-.07.27-.2.65.06zm.3-.69c.2 0 .75.12.5-.16-.16-.06-.26-.13-.29 0v-.24c.82.14.94.45 1.08.76a3.08 3.08 0 0 1 .34.24c0 .07-.09 0-.2 0a1.08 1.08 0 0 0 .21.22l-.16-.06c-.24-.17-.16-.18-.05-.16a2.15 2.15 0 0 1-.14-.26 3.78 3.78 0 0 0-1.31-.39zm.87.84l1 .33h-.2zm0 6.77c.12-.1.13-.31.68-.06-.23 0-.34.21.07.39h.2l-.24.12-.12-.15a2.5 2.5 0 0 0-.59-.27s-.1 0-.12.06.05-.14.1-.14zm-.69-4.71c.48.17.12.14.4.34l-.5.16c-.89-.5.18-.25.1-.5zm-1.15 2.37c.51.24.59-.09.66-.1.74.29.38.26.79.6-.13-.14-.81-.28-.72 0zm1 4.31v.25l-.78-.2zm-.85 1.84v-.08l-.39.06c-.5-.57.76-.2 1-.24-.1.1-1.37-.11-.12.42zm1.17 3.4l-.13.12c0 .05 0 .08-.08.08l.08-.08c-.07-.13-.37-.34.13-.12zm-.87-.84c.65.06-.71-.78.37-.3-.13 0-.2 0-.17.11.32.11.84.19.9.34-.4-.1-.6.1-1.11-.15zm.94-5.17v.16c-.47-.5.68.14.59-.09l.06.15c.47.33.42 0 .84.19.15.22-.38.31-.44.15-.12-.38-.88-.27-1.06-.56zm1.2 1.22c.44 0-.44-.49.51-.19.67.53-.17.25-.52.19zm1.46-10.4a3.91 3.91 0 0 1-.57-.24.66.66 0 0 1 .77.21zm.82 9l-.1-.07.4-.06.09.07zm.32-4.6c-.34-.35-.18-.29 0-.32.19.09.18.25-.01.28zm.46-.07c-.4-.5.65.06.82-.05.36.39-.6-.11-.83-.01z"/><path class="cls-1" d="M32.65 223.7l-.82.05.78.2.04-.25zm1.56-1.62l.24-.12h-.2c-.41-.18-.3-.44-.07-.39-.55-.25-.56 0-.68.06a2.5 2.5 0 0 1 .59.27zm.25-6.86l-.96-.33.77.36.19-.03zm1.98 7.4l.09.07.4-.06-.09-.07-.4.06zM26 234.72c.86.43 1.39.35 1.43.26s0-.08.17-.1a3.58 3.58 0 0 1-1.6-.16zm2 .66l.25-.28c-.44-.18-.32.13-.25.28zm-3.13 6.09l-.21.19c.19.14.23.05.29 0-.38-.07-.05-.12-.08-.19zm3.77-13.74l.18-.27-.28.21.1.06zM27 230.18c.39.67-1.23-.3.09.63 0-.24.54-.25.61-.25l-.05.24c1.12.4-.36-.59.06-.57-1.63-1-1.41-.19-2.28-.5.57.27 1.4.91 1.57.45zm1.83 2.96c-.71-.21-.73.11-1 .23.53.32 1.28.45 1.33.2.66-.02-.79-.52-.33-.43zm5.29-19.41c.2 0 0-.24 0-.31s.09.23-.33.05c-.17-.23 0-.31.21-.28-.6-.25-1.37-.65-1.13-.14a6.82 6.82 0 0 1 1.25.68zm-1.79 1.01l.65.06c-.38-.26-.68-.13-.65-.06zm1.67-1.55a2.17 2.17 0 0 0 .52.17 1.84 1.84 0 0 0-.52-.17zm-.89-.68l-.01.17.87.27-.86-.44zm-3.85 19.92l.52.08-.03-.08h-.49zm2.85-17.33a.15.15 0 0 0 .06-.14c-.06.04-.09.04-.06.14zm-6.3 11.62a.9.9 0 0 0 .23.18.52.52 0 0 0-.23-.18zm-.64.34h.06zm-6.58 17.82c0 .09-.68 0 0 .24.41.1-.03-.12 0-.24zM20 245c-.38-.06-.48 0-.49 0a.75.75 0 0 1 .49 0zm-.52.39c.27-.09.05-.28.06-.38-.1.06-.13.18-.06.38zm1.24-2.3c-.68-.14-1.19-.38-1.46-.18.32.11 1-.23 1.12.39 0 0-.11-.3.34-.21zm.51-.32a.18.18 0 0 1 0-.17c-.07.03-.08.07 0 .17zm.7-.36c-.38-.1-.86-.27-1-.16.45.16.35.24.31.35.15-.08.93.16.69-.19zm-1.3-5.96c.25.12.29 0 .36 0s0-.31-.25-.28zm2.54-.32l-.86-.43c-.2 0 .51.25.37.43zm3.83 2.25h-.11zm-5.73-3.98l1 .33a2.16 2.16 0 0 0-1-.33zm.87-1.02l-.47.23.36.02.11-.25zm.81-.46l.18-.27-.37.14.19.13zm5.78-9.82c.94.66-.54.24.44.82-.17-.22.39-.47-.44-.82zm3.21-7.16l.37-.3c-.31.21-.55-.16-.37.3zm30.41 40.45c0 .16-.35.13-.45 0 .19.44-.19.25.44.62.22.34-.31.29-.47 0l.14.69.25-.24c.49.37-.41.38.17.81l.23-.56.16.13a.33.33 0 0 1 .19-.46c.09.06.23.13.2.23.38-.61-.85-.67-.74-1.29-.01.01-.04.05-.12.07zm1.65.16l-.6-.55.37-.28c-.23-.12-.28-.49-.58-.42 0 .06.05.16 0 .21-.48-.31 0-.63-.55-.79 0 .37-.16.35.15.75a1 1 0 0 1-.66.41c0 .12.33.29.34.43v-.08l.76.39c-.12-.17 0-.21 0-.31l.64.9c.78.24.6-.41 1-.43-.71-.15-.18-.36-.87-.23zm11.41-35.13c0-.1-.12-.22-.21-.28l-.54 1.05c.22.07.62-.1.63.17.27 0 .23-.35 0-.53l.26.24c-.26-.45.59-.21.74.07l-1.13-1.46c-.24.18.39.44.25.74zm12.3-20.74a.91.91 0 0 0-.14-.25c-.01.17.06.22.14.25zm-12.84 19.64l-.35-.46a2.34 2.34 0 0 0 .35.46zm6.31 5.21h.08l-.18-.22zm1.16 4.24l-.2-.7c.18.17.23-.08.43.14 0-.05 0-.26-.15-.27v.1c-.49-.57-.81-.55-1.06-1.21-.5.06-.22.35 0 .63v.17l.65.84zm5.53-20.87l-.19-.12c.09.08.13.22.19.12zm-13 11.42l.27.34h.09a2.18 2.18 0 0 1-.36-.34z"/><path class="cls-1" d="M76.27 222.12l.25.31c0-.21 0-.43-.13-.75zm-.83-1.95c-.17-.39-.67-.54-.51-.89.21.28.83.66 1.07.37-.12-1.12-1.43-2.51-1.84-3.7.45.2.65-.46.9-.7a1 1 0 0 1 .4.92c.1-.13.25-.36.36-.53l-.87-.56c.34-.86.62.59 1 .31 0-.27-.27-.53-.31-.73 0 .8-1.09-.69-1.25.05-.57-.42-.43-.83-.14-1 .73.07.32.45.88.82 0-.31-.09-.32-.37-.61.36-.33-.29-1.24.67-1 0-.37-.27-.5-.5-.84-.62-.38-.57.26-1.13.1a.55.55 0 0 1 .28.08l-.27.18c.35-.12.62.38.6.53s-.1.31-.27.19l-.06-.22c-.3.07.25.65-.2.66-.15-.07-.18-.17-.26-.23.32.45.19.64.33 1.13l-.54-.53c.57.64.06 1.11-.53 1.32.13 0 .25 0 .35.08 0 .32-.51.27-.79 0 .41.51-.91.64-.39 1.32l2.47 3.18a.51.51 0 0 1-.08-.26c.63.15.56.05 1 .56zm.02-3.91v-.09.06zm.85 4.67c.1.12.11.17.21.29a.85.85 0 0 1-.06-.17.25.25 0 0 0-.15-.12zm-1.01-.36h-.07a.45.45 0 0 0 .23.08zm5.2-6.5v-.13a.11.11 0 0 0 0 .13z"/><path class="cls-1" d="M75.74 217.15c-.21.08 0 .49-.23.58.28.05.67.69.62.09 0 .05.08.06.09.11.49-.1 0-.52.11-.77.31 0 .25.44.42.36-.06-.43.8-.82-.1-1.27 0-.26.27-.19.46-.17-.76-.86 1.11-1.09-.11-1.74a.86.86 0 0 0 0 .68l-.84-.45c-.1.31.63.38.42.78l.1-.1c.13.43-.27.87-.42 1.22-.24-.18-.43 0-.8-.21a.89.89 0 0 0 .28.89zm-4.9 4.77l.23.17c.17.09.09-.11.05-.3.16.12.35.26.41.09.47-.16-.21-.76 0-.95v.11a.48.48 0 0 0 .17-.77c.76.18-.19.72.58.69-.35.12 0 .73-.12.93a1.48 1.48 0 0 1 1.47.15c-.07-.9-1.45-.78-1.4-1.51l.35-.33-.67-.54c.12-.25.52.47.67.07-.3-.29.15-.36 0-.56.16.1.35.21.47 0-.09-.06-.38-.19-.3-.34.8.29-.06.47.71.65.26-.45-.57-.64-.77-.87.08.07 0 .06 0 .11-.24-.13.07-.21-.23-.34-.06.06 0 .17 0 .27-.16-.26-.6 0-.68.08.21.5-.28 1-.41 1.48a.21.21 0 0 0-.18-.17c-.28.6-.63.72-.8 1.49l.49.37zm.45-.43l-.19.17c0-.1.04-.19.19-.17zm5.54 17.28l.08.28c.03-.05-.01-.17-.08-.28zm-10.55 13.29a.17.17 0 0 1 0-.05zm5.83-8.64a.49.49 0 0 0-.21 0 .2.2 0 0 0 .21 0zm4.71-4.7zm3.38-8.57v-.23a.3.3 0 0 0 0 .23zm-17.55 23.23v-.01l-.08-.05.08.06zm6.97-8.18c-.13 0-.32 0-.41-.09.11.17.49.36.41.09zm-11.22 4.87a2.09 2.09 0 0 1 .21.23c-.08-.12-.14-.22-.21-.23zm5.6-9.3a.2.2 0 0 0 .13 0c-.13-.04-.13-.04-.13 0zm-.68 13.83c.17.12.22 1 .59.48.55.32.08.48.14.7.18 0 .33.24.54.31 0-.11-.14-.27 0-.37.28.08.36.35.19.44.39 0 .33.45.68.33a2.17 2.17 0 0 0-.54-1.89c0 .36 0 .78-.39.9l-.43-.35c.57-.05.35-.39.53-.63L64 255c-.55.07-.54-.16-.51-.43a.15.15 0 0 1-.17.03zm-3.99-2.6v.05zm11.14-27l-.16-.14c.06.08.11.14.16.14zm9.44 7.13h.07s-.04-.01-.07 0zm-11.51 1.42a.22.22 0 0 0-.19 0zm1.23 3.15v-.07zm-.7.46a.55.55 0 0 0-.14-.13c.08.33-.36.64.12 1 0-.08.55-.33.81-.1 0-.23.44-.28.4-.41-.42.12-.44-.2-.52-.47.23-.08.39.25.56.16l.15-.4-.25.29-.43-.36v.06c-.04.63-.72-.38-.7.36zm-.14-.16a.33.33 0 0 0-.07-.16c-.02.09.02.16.07.16zm7.26-14l.27-.23v-.07c-.18-.1-.65.06-.27.3zM65.7 246.18a.24.24 0 0 0 .06-.11c-.11-.07-.08.05-.06.11z"/><path class="cls-1" d="M69.72 237.89a.4.4 0 0 0 .12.2.4.4 0 0 0-.12-.2zm-4.93 7.83a1.37 1.37 0 0 1-.48-.1c-.06.09.11.26.13.4 0-.14.1-.25.35-.3zm15.41-16.91zm-16.63 18.31c.52.68-.43.54-.73.82l.17.34.36.1c-.31-1.07 1.53.45 1-1a.66.66 0 0 0 .2-.14 2.73 2.73 0 0 0-1-.12zm24.54-45.48l-.17-.15c.06.08.06.09.17.15z"/><path class="cls-1" d="M84.53 224.11a.94.94 0 0 0-.43.53c-.19-.44-.24-.18-.64-.43.47 0 .4-.64.7 0 .14-.2.42-.59.22-.82l-.3.07c.17-.29 0-.79-.39-1.14-.15.41.61.8.29 1.24-.69.3-.36-.35-1.13-.32l.24.6.15-.14c.56.37-.36.54.38.87-.75.09-.48.38-1.21.51.19.23.28.08.38 0-.14.19.56.58 0 .63-.17.09.47.31.6.06-.14.19-.13.46-.33.65h.58l-.12.25.37-.07a1.19 1.19 0 0 1-1.29.92c-.25-.65.29-1.23-.34-1.87-.27 0 .37.62-.35.39l.36.35c.06.22.06.64-.39.44a3.14 3.14 0 0 0-.69-1.26.17.17 0 0 1-.11-.18c0-.14.16-.3.11-.47.17-.09.37.14.45.2.79-.18-.42-1.25.2-1.55.38.19.67-.15.8.08.25-.24-.12-.64-.28-1 .36.14.34-.39.64 0l-.43-.56c.31-.08.22-.61.65-.46 0-.27-.56-.37-.22-.55.08.06.14.07.09.11a.36.36 0 0 0 .22-.61c-.22.14-.14 0-.34.18-.23-.13-.42-.56 0-.68.39.67.72 0 .94.35.36-.54-.24-1.28-.52-2 .21-.61.83-1.18.56-1.89v.05l-.19-.44c.08-.15.61.32.58 0 .49.36-.13.46.13.9.74-.14.32.66.89.61-1-.72.3-1-.08-1.63.3-.29.37.4.53.26l-.28-.29c.17-.09.3-.07.53.05a1 1 0 0 0 .13-1.35c0 .53-.44-.41-.65 0a.86.86 0 0 1 0-.78c0 .31.94.09.48.52.57.21 0-.32.24-.51.13.23.32.67.39.67-.54-.73 1-.89.59-1.3a17 17 0 0 1-.8-1.66c.56-.1.48-.58.79-.86l.18.17c.22-.13.16-.56.42-.8l.43.15a2.17 2.17 0 0 1 .3-1c-.23-.12-.33.18-.54-.1-.09.15-.11.3.17.38-.09.15-.46 0-.72 0v-.73h.13l-.4-.27c.08-.15.21-.14.38 0 0-.42-.5-.84-.19-1.12.29.34.48.57.36.82l.21-.4c.31.4-.15 1 .56 1.27a5.83 5.83 0 0 0-.41-2.09c.6.06.17-.56.56-.79a.66.66 0 0 1 .49.16v.1a1.88 1.88 0 0 0 .1-1.67l.6.06c.55-.58-.86-.3-.63-1.06.62.11.7-.72 1.15-.52 0-.15.07-.2-.25-.39-.1.1-.14.41-.43.06 0-.31.31-.28.38-.48.08.06.29.34.26.23 0-.57.5-1.42-.15-2.32 0 .21.31.4 0 .53-.23-.13-.13-.23-.22-.34-.45-.2.17.38-.27.45l-.31-.67h-.52l-.69-1.49c-.68.56.77 1.76-.12 2-.09-.17-.25-.14-.37-.17.11.3 0 .52.22.79l-.17.29c-.23-.13-.74-.55-.57-.85-.61 1.05.13 2.48-.86 3.33-.13 0-.06-.22-.18-.17.07.21.09.53.24.6-.08-.06-.24-.19-.21-.29-.06.68-.93.59-.78 1.13-.29-.13 0-.37-.17-.38-.52.42.21 1.17-.09 1.72-.31-.4-.48-.1-.8-.08a12.3 12.3 0 0 1-.38 2.48c-.92-.72-.44.75-1.33.34a.52.52 0 0 0 .25.66c-.11-.17.26-.24.42-.12 0 .26-.21.61.18.86h-.57c.32.19.66.48.57.63-1-.1.6.27-.1.52a6.56 6.56 0 0 0-.72-.7c-.21.19 0 .26 0 .47a1.39 1.39 0 0 1-.68-.8l-.41.17c.36.56.81 1.44.4 1.82-.26-.24-.18-.38-.66-.48 0 .26.43.83 0 .94 0-.05-.08-.06-.09-.11.2.7-.31.28-.59.67a1.21 1.21 0 0 1-.14-.1l.17.42c.46.94-.81.34-1.28.51v-.11c-.6-.06-.47.84-.77.92.43-.06.35.09 1 .2 0-.27-.67-.54-.28-.77.48.31.43.84.78 1.13-.08.21-.94-.09-1.24-.23-.17.51-.59.63-.72 1.3.24.39 1.22 1.12.29 1.23l-.17-.12c.32.19-.2.19 0 .42.62.11.24.39.84.45-.1.31-.85 0-1.29-.23.62.58-.68.35-.49 1-.26-.24-.08-.74-.54-.74l.55 1 .12-.25c.34.72-.37.49-.73.61a.24.24 0 0 1-.2-.26.77.77 0 0 0 0 .5 8.34 8.34 0 0 0 .51 1.23l-.08.05a.22.22 0 0 1-.08-.09.51.51 0 0 0 0 .13l-.24.16-.07-.1a.35.35 0 0 0 0 .13l-.23.17.11.21v-.05c.55.32.82.82.58 1.11a2.62 2.62 0 0 0 .41-.34l.14.18-.87.86c0-.18-.06-.35.06-.46-.77 0-.15 1-1 .79-.38-.88.12-.93.19-1.61.71 0 .15.54.46.73l.33-.23c-.37-.14.11-.72-.73-1a6 6 0 0 0-1.41 1.77l-3.57-2.64a1.25 1.25 0 0 1-.23-.17c-.28.6 1.35 1.07 1.41 1.29s.26.44-.08.41l-.18-.17c0 .47.51.41.27.7.19.44.2-.18.43.15-.31.29.94.78.18 1.07-.17-.12-.66-.28-.57-.63l-.56.1c0-.47-.06-.22.08-.62-.45-.47-.82-.61-1.19-1 .06.21.51.41.37.61s-.25-.18-.41-.3c.45.67-.75.08-.32.7.67.28.61.32 1.13.32.09.33-.47.37-1 .06l.48.31c-.15 0-.25.15-.38.09l.21.21c.46 0 .71 0 .67-.36.28.29.93.3.85.72-.08.15-.29-.14-.44-.2 0 1-1.26.34-1.3 1.13-.14-.28.38-.49.17-1-.53-.06-.06.46-.21.61-.14-.28-.31-.4-.61-.33l.26.24c-.06.11-.13.32-.28.26a.38.38 0 0 0 .36 0 1.16 1.16 0 0 1-.28 1.49c-.63-.37 0-.89-.68-.8 0 .26.61.8.07.95-.29-.34-.46 0-.69-.17l.51.89a.75.75 0 0 0-.3.76.31.31 0 0 1 .11-.31c.6.74-.58.47-.48 1.06l-.16-.33c-.32.23-.21.61-.1 1l-.46-.25c.62.37.48 1 .61 1.21 0-1 .85-.39.76-1.39.5.63.51.89 1 1.51a.33.33 0 0 1-.38 0c.19.23.59.48.66.75l-.28-.08c-.54.37.81 1 .34 1.4-.65-.22-.57-.84-.77-1.33-.67-.06 0-.64-.94-.78l.3.34c-.09.15-.4 0-.37-.14 0 .27-.08.15.18.39-.35.8-.72-.49-1.39.12-.11-.17 0-.36-.34-.5l.36-.34-.46-.25c-.31.49.12 1.11.76 1.76-.2-.71.51.2.87.08.18.21 0 .23-.15.21.11.11.08.39.35.49-1.18-.48-1.73.51-2.75-.32-.48.11-.33 1.33-.59 2l-.23-.34c-1.32.13.48 1 .57 1.52-.22-.54-.64.05-1 0 .21.49.7 1.06.42 1.45-.5-.15-1.25-.54-1.44-.29l.3.39c-.18.25 0 .79-.41.8v-.05c-.4.17.29.55.5.36l.12.43-.15-.07c.09.54.62 1.27.42 1.94-.37-.41-1.1 0-1-.62.14.27.5.15.71.23.21-.14-.19-.59-.2-.7a3.53 3.53 0 0 1-1.18-.75c.55.79-.74 1.5.45 2.24-.33.45-.36 1.23-.89 1.65a.63.63 0 0 1 .28.08l-.78.19v-.17l-.55.1a.46.46 0 0 1-.33-.45c0-.11.17-.09.2 0-.22-.54-.34.18-.66-.27.12 0 .07-.21.12-.25-.52.21.17.8-.65.67.31.4.55 1 0 1.15-.21-.28-.14.41-.6-.06.21.29-.34.39 0 .63-.1-.11 0-.26.17-.3.06.22.38.41.22.55a.52.52 0 0 1-.15-.07c.18.39 1.11.69.9 1.09-.31 1.18-1.14-.79-1.45-.77.24.18.21.75-.15.82l-.1-.11c0 .16.19.44-.14.4a13.6 13.6 0 0 1 1 .89l-.18.51-.2-.23a.53.53 0 0 1 0 .36c-.36-.14-.2-.22-.26-.44-.35-.09-.38 0-.1.3l.05-.05c.13.23.39.94.7.65.19.44-.54.16-.46.43-.3-.14-.29-.34-.56-.37-.15.14-.25.24-.19.45.17-.09.24.18.53.05.11.17.06.43.2.5 0-.11-.12-.23.13-.25a.63.63 0 0 1-.45.69.85.85 0 0 1-.16-.17c.33.58 0 1 .41 1.5h.17c-.12-.16-.06-.32.13-.3 0 .31.61.11.72.49s-.71.45-.17 1c.24-.29.81-.55.6-.84l-.14.2-.51-.89c.29.13 0-.52.5-.26a3 3 0 0 1-.11.51c.22.07.34-.39.5-.53l-.29.13c-.17-.59.22-1 .14-1.56.2.49.52-.21.77.23.2.23-.27.19-.13.2.39.25.2-.19.55-.1-.25-.19-.19-.65-.62-.59.25 0 0-.53.36-.54-.51-.21-.14-.49-.32-.66a.48.48 0 0 1 .33-.07c.07.24.17.54.29.86-.12 0-.21.19-.07.21l.18.1c.23.64.47 1.29.56 1.6l-.19-.23c.44.62-.35.59-.06 1.15-.08-.06-.1-.12-.15-.07-.29.34.46.94-.09 1l-.24-.18a.82.82 0 0 0 .45.46c0-.31 0-.42.15-.61a.75.75 0 0 1 .2.69l.46.27c.39.45-.44.27 0 .72l.44-.06a.14.14 0 0 1 0 .07.38.38 0 0 0-.1-.34c-.07-.48.69-.3 1-.22.24-.08.56.38.86.51 0-.31-.49-.57-.45-.88a.18.18 0 0 1 .23.12l-.16-.33c.15.07.49-.32.68.12 0 0 0 .11-.11.16.53-.18 1.24-.61 1.75-.31.22-.14-.06-.22.26-.45-.29-.34-.76-.39-.83-.87l-.33.18c0 .09.11.19.14.28l.1-.31c.08.27.3.35.63.59-.2.45-.91.22-1.2.35-.21-.28 0-.47-.5-.62.52 0-.26-.45.25-.5l.09.11c-.24-.39.21-.19 0-.53a.43.43 0 0 0 .21.08c0-.48-.33 0-.57-.64.24-.29.8.29 1.07.32.31.87.76.39.94 1.25.61.32.81.13.9-.23-.37.07-.82-.61-1.39-.56 0-.63-1.26-1.22-.42-1.46l.09.06-.33-.45.41-.17c.54.53.1.59.39.94.84 0-.36-.83-.09-1.22.92 0 .19.65.8 1-.11-.17.32-.23.49-.11-.44.27.25.44-.32.7-.09-.32-.22-.07-.46-.25.18.17 0 .63-.2.87.41.3.5-.06.8-.13-.3-.61.76-.5.34-1.07.14-.4.45.2.51.21.39-.23-.29-.34-.34-.51-.06-.68.83-.28 1-.63-.44-.62.16-1.24.47-1.73a1.34 1.34 0 0 0 .6.26 2.32 2.32 0 0 1-.71-1.12l-.47.17c0-.31-.43-.83.15-.83-.93-.09-.34-.71-.49-1 .41-.12 0-.69.54-.58v.06l.29-.34.7.43c.43-.11.06-.73-.21-.75.34-.18.33 0 .7.17.14.28.59 1 0 .73.06 0 .11 0 0-.1-.72.54.77.71.76 1.17.15-.16.58-.11.49-.42a2.14 2.14 0 0 0-.21-1c.19.44-.21.4-.58.47.16-.15-.24-.4.08-.42l.1.12-.16-.33c.44.2.46-.43.81.13 0-.31-.34-.3-.37-.61l-.41.38-.46-.26c-.22-.34.14-.2.21-.4l-.53-.26.62-.1c-.36-.14-.09-.32-.12-.43.3-.07 1 .47.75-.08h-.07c-.07-.27-.12-.43.15-.61a.43.43 0 0 1 .13.22c.46-.22 0-1.21.82-1 .4.25.08.27.54.53-.9.22.55.78-.16 1.24-1.06-.52.32.87-.78.45.27-.19-.18-.86-.31-.87a1.24 1.24 0 0 1-.42.71 2.55 2.55 0 0 1 1.27.68c-.09-.53 1-.84 1.37-1.33l-.66-.28c-.21-.7.55.37.78 0l-.38-.41h.07l-.42-.57c-.07.21.42.36.06.43s-.47-.26-.8-.5c.26 0 .37-.54.64 0l-.36-.82c.23.12.27.29.37.4l.08-.41.08.06c-.13-.43.08-.83-.24-1.29-.71.25-.41-.51-.77-.65.15-.14 1.27.39 1.51 1-.41-.09-.07.41-.15.62.36-.13.1-.36.17-.57.21.29.5-.05.73.08s.66.48.3.6c-.22.35-.59-.26-.54-.1-.65-.22-.17.56-.45.69-.07 0-.1-.12-.12-.17-.07.2-.28.6.12.85v-.63c.18 0 .29.34.61.32a.31.31 0 0 1 .14-.41l.16.12c.49-.11.6-.62.61-1-.87-.56-1.33-1-2.23-1.69A4.64 4.64 0 0 1 75 237a.84.84 0 0 1 .13 1.12l-.15-.28c-.25.24 0 .53.16.75a.5.5 0 0 0-.29-.08c0 .31.4.72.8.76l-.11-.17.53.05c-.81-.51 0-.79-.26-1.28.26.4 1 1 .3 1l.45.2c-.06.26-.59.21-.23.56v-.31l.23.13c.07-.2-.17-.63.18-.66-.21-.31-.59-.69-.28-1l.09.06c-.65-.7.89-.49.65-.88-.74-.55-.57.25-1 .21-.23-.33.3-.28-.24-.39-.17-.59.81.14.44-.48l-.3.08c-.29-.34.06-.47-.23-.81-.55-.32-.13.25-.46.43l-.36-.35.16.8c.61.53.7.38 1 1a4.12 4.12 0 0 1-1.82-.71c.32 0 .28-.39.74-.13-.38-.41-.5-1.05-1-1.2a.22.22 0 0 1 0-.08 1.57 1.57 0 0 0 1.52-.45c.07-.1-.24-.28-.69-.49.19 0 .37-.07.44-.17.16.19.4.38.34.55l.58-.72.18.18-.13-.48c0 .24-.25.45-.68.13-.15-.54.45-.48 0-1.1a8 8 0 0 1 1.45.77.07.07 0 0 1-.06 0 2.3 2.3 0 0 1 .77 1.11c.63-.52.25-.51.76-1 .51.21.23.81.63.85l-.53.42c0-.11-.09-.18-.14-.27.15.57-.37.47 0 1-.32.06-.22-.48-.41-.33 0-.21-.46-.67-.79-1-.43.33.48.58.49 1.05h-.57c0 .21.28.08.43.14 0 .27-.34.18-.42.33a.82.82 0 0 1 .48.1c-.5.06-.4.43-1.21.3.4 0 .76.6.8.76l.94-.12c.11-.72.64-.93.66-1.77l.24.18c1.38-.59-.83-1.55-.38-2.45.68.33.13-.46.75-.08-.18.24.1.32.45.41-.15-.28-.57-.63-.17-.8.28.29.7.17.67.54.36-.34.42-.59-.06-1.11-.21-1 .83.19.85-.65l.2.23.12-.46h-.4l-.13-.7c-.21-.49-.48-.1-.73-.28l.43.36c-.22.13.05.63-.31.49.09-.36-.33-.48-.45-.71v.41l-.41-.1c-.17.3-.38.49-.07.89.25 0-.24-.39.09-.36.53.47.38.88.39 1.35-.15-.06-.25 0-.35-.09s0-.09 0-.12c-.28-.11-.34-.41-.69-.15a13.51 13.51 0 0 0-1.08-1 .65.65 0 0 1 .33-.65l.09.06c.15-.14-.09-.74.36-.54 0-.16 0-.53-.43-.36v-.63c.73.5 1.14.11 1.5.94v-.62l.07.06a.68.68 0 0 0 .12.11c-.06 0 0 .1-.19 0 .46.46.73.28.92 0l-.4-.3c.37-.1.83 0 .81-.44L80.1 227v-.27c.31 0 .29-.38.72 0 .22.07.27.23.1.32s-.08-.06-.15-.07a1.49 1.49 0 0 0 .94.36c-.15.14-.22.14-.09.36l.15-.14a1.72 1.72 0 0 0 .74 1.22c-.49-.36.13-.25.3-.34 0 .17.22.55.37.41-.18-.18-.23-.81-.62-.59-.06-.21-.22-.54 0-.63.16.33.41.31.74.55a2.47 2.47 0 0 0-.77-.65c.71-.25 1.77.07 1.69-.68 0-.1 0 .42-.34.18-.4-.72.92-.17.85-.65l-.65-.22a1.9 1.9 0 0 1 0-.63c.22.07.82-.08.86.29.7-.34-.94-1.13-.41-1.71zm3.58-22.47c-.07-.06-.13-.07-.17-.15zM76 225.48l-.13.14-.37-.27a1.06 1.06 0 0 1 .5.13zm-12.61 22.9l-.36-.1-.17-.34c.3-.28 1.25-.14.73-.82a2.73 2.73 0 0 1 1 .15.66.66 0 0 1-.2.14c.51 1.42-1.33-.1-1.02.97zm3.12-3.49a2.45 2.45 0 0 0-.28.81l-.2-.23c-.38-.13-.14.33-.25.6.16.19.26.45 0 .42l-.25-.18c-.26-.08-.4.17-.56.45l-.22-.26a.8.8 0 0 1-.25-.47c0 .08 0 .14-.23.16l-.68-1c-.27.18.59.68.26.91-.54-.31-.84-.45-1.06-1 .26-.24.31.18.63.16-.55-.58.72 0 .08-.62.11-.3.45 0 .72 0-.11.3.63.17.56.58.48-.11-.48-.52-.13-.64l.6.27c.29-.13.84-.44.64-.94-.5.06-.3-.34-.66-.48.48.31-.06.46-.29.34 0-.27.15-.83.34-.86l-.53.21c-.21-.28-.49-1-.57-1.11.31 0 .37-.28.72-.19l.27.5-.41-.09.37.4a2.13 2.13 0 0 1 1.23-.17c-.27.4-.31 1.2.29 2.53a.33.33 0 0 1-.16-.1zm6.12-9.57l-.45-.21c-.5.53.38 1.56-.18 2.08-.34-.29 0-.41-.21-.49-.29.34.84.87.08 1 .15-.61-.38.23-.52-.47.3 1-1 1.27-1.11 1.78.34 0 .31.4.39.46-.1.1-.35-.09-.31-.19a1.34 1.34 0 0 1-1.07-.27l.2-.49c-.2.09-.53 0-.66.1 0 .05-.07.11 0 .25s.18.18.38.28l.74 1.14-.08-.06-.17.56-.17-.17.2.49c-.46-.26-.27 0-.58-.22-.91-.24 0 .84-.6 1l-.19-.18c.33.45-.43.74-.73 1l-.09-.06a.62.62 0 0 0-.58-.51c-.06-.13-.06-.28-.13-.4.1-.1.11-.51.56-.31-.13.25-.06.25.27.29-.25-.45.24-.77-.44-1.1.16-.35.18 0 .54-.15a.88.88 0 0 1 .44.41l.26-1.13c-.48-.31-.8.39-1.25-.28-.11-.17-.87-.56-.48-.78a.22.22 0 0 1 .12.13c0-.2.18-.13.36-.24.52.2.25.39.52.68 0-.16-.17-.39-.07-.48l.17.12.07-.41c-.29-.35-.19.24-.48.11l-.18-.39a1 1 0 0 1 1.09-.94c.4-.17-.23-.34-.49-.57-.31-.4.31-.29.23-.56-.38-.19-.24-.39-.7-.64l.25-.24c-.6-.53-.31.28-.65.2-.7-.18-.09-.33-.51-.42-.06.26.26.44.3.61s-.22.13-.45 0c.46-.21-.39-.45-.13-.69l.15.06c-.47-.25 0-.52-.1-.79.7 0 .57.63.72.7l.06-.47c.22.34.6.32.78.71 0-.32.42-.12.24-.5.57.63.71 0 1.15.17 0 .37-1 .48-1 .37.15.07-.09.36-.34.39l.54.52c.14-.2 0-.63.5-.26l-.12-.44a3.57 3.57 0 0 1 .89 1.18c1-.18-.23-1.38.63-1.5v.11c.31-1 1.29-.74 2.38-.4 0 .19-.01.36-.01.51zm.5-5c-.19 0-.25.14-.68.07-.15-.07-.13-.22-.16-.33a.31.31 0 0 0-.26.44c.26-.23.4 0 .83.19.08.27-.18.51-.13.67a1 1 0 0 1-1.12-.23c.1.26-.18.32.16.71-.29-.55 1 .52.58-.2.72.23.23.54-.14.61 0-.16-.31-.19-.48-.31.06.43.61.54.89.41l.16.54v.44c-.54-.23-.89-.4-.71-.43h-.45v-.37c-.49-.1-.24.29-.33.44-.38 0-.17-.59-.71-1.12-.23-.34.38-.49.56-.31-.7-.38-.09-.74-.33-1.13.25-.51 1.08.15 1-.43h-.47c.06-.47.06-.68.49-1 .51.2-.22.13 0 .36l.6.06c0 .1.28.5-.19.24.24.13.53.48.49.1l.24.4h.16c.01.06-.01.14-.02.21zm.11-.67c-.19-.16-.47-.23-.21-.41a.39.39 0 0 0 .27.1zm.09-3.43c-.12-.17.09-.56.44-.27-.34.18.94.83.06.69.32.22.5.23.62.17a.7.7 0 0 0 .2.18c-.07.09-.14.17-.2.26a.24.24 0 0 1-.31 0c-.57-.25-.41-.64-.83-1zm.14 3.53a.08.08 0 0 1 .08 0 .08.08 0 0 0-.1.03zm1.56.16l.28.08c-.17.09.11.38-.24.29a18.56 18.56 0 0 1-1.46-1.94.91.91 0 0 1 .45-.68v.13c-.7 1.24.42 1.16 1.92 1-.27.4-.66.76-.98 1.15zm1.27-4.78a.23.23 0 0 1 .15-.12zm3.92 3.65z"/><path class="cls-1" d="M76.46 220.55v-.12a.21.21 0 0 0 0 .12zm-5.63 1.36l.01.01-.01-.01zm-8.33 31.61c.11.17 0 .37.34.51-.38-.2.16-.41-.34-.51zm-.31.29v-.31l-.23.08c.12.06.27.13.23.23zm-2.91-1.34c.21.28.33.45.19.65-1-.41-.07-.48-.88-1-.29.34.45.88.36 1.24.46.02 1.05-.51.33-.89zm-1.06-.79l.09.33h.07l-.1-.32-.06-.01zm10.43-.38c.3.13.09-.15.06-.26-.05.05-.17.09-.06.26zm23.26-43.62c-.17.51-.37 1-.59 1.78zM70.34 245l-.68-.12c0 .58.43 1 .32 1.55.89-.27-.49-1.24.36-1.43zm.66.44c0 .36.44.41.26.65l.63.17c-.6-.21-.48-.67-.89-.82zm-9.33-2.23l.05.16.16.12-.21-.28zm10.78.8l.1.12.28-.13-.38.01zm-11.64-1.31l-.22.14.2.23.02-.37zm3.83-.19l.08.26c-.02-.05.33-.17-.08-.26zm8.75.28l-.09-.32-.07-.01.1.32.06.01zM63.46 240c-.05.26.21.29.43.36-.48-.13.11-.44-.43-.36zm4.45-.53c.25 0 .2-.1.17-.23-.08.09-.26.1-.17.23zm.65-1.35l-.08.07c-.16-.2-.15-.14 0 0 0 .1.1.16.18.22l.13.14-.11-.15c.06-.12.08-.21-.12-.28zm8.36-.18c-.26.25.32.5.35.75.12-.37.3-.36.4-.83-.32.23-.44.27-.75.08zm-12.94-.91l.03.11.36.35-.39-.46zm13.88.59c.31.19.27-.18.22-.14s-.08.15-.22.14zm-7.06-2.06c.1-.1.75.12.32-.23-.21-.08-.2.19-.32.23zm6.43.32a.68.68 0 0 1-.56-.16c.11.17.62.58.56.16zm-5.75-1.1l-.13-.01.09.32.04-.31zM66.32 233c.25.45 1.13.12 1.23.7.69-.32-.56-.24-.29-.61a1.08 1.08 0 0 1-.94-.09zm1.29-1.33l.39.67c-.26-.44.09-1-.51-1.31-.22.14-.19.45 0 .68zm12.64 1.41l.14.28.17-.16c-.11.01-.48-.32-.31-.12zm-8.93-.88c.14 0 .39-.23.09-.36a.33.33 0 0 0-.09.36zm8.68-.67l-.04.31.1-.3-.06-.01zm1.61-.68l.14.02-.1-.33-.13-.01.09.32zm-12.15-4.45c-.15.14.29.55.43.56l.16-.35c-.5-.15 0 .1-.26.24zm17.92-9.04c-.13-.22 0-.37.21-.4-.25-.18-.56-.16-.88-.35-.57.26.68 1 .26 1.34-.31-.19-.53-.47-.63-.17v-.11c.12.64-.92 0-.19.72l-.46-.26a1.26 1.26 0 0 1 0 1.05l-.08-.06c.2.91-.08.41-.23 1.24l-.37-.62c-.35.13.21.5.05.64-.08-.06-.44-.2-.44-.41l.37 1.29c.25.39.37.14.58.22.26.23-.11.51-.41.38-.09-.12-.11-.38-.35-.35l.58.68c-.67.15-.82-.81-1-1.14-.3.34.12.72-.11 1.14a.93.93 0 0 1 .56-.05c.53.26.09.54 0 .84.32-.06.46.15.59.39 0 0 0 .06.05.09a.35.35 0 0 1 0 .08 1.23 1.23 0 0 0 .24.09c0-.32.51-.27.6-.41-.93-.31.08-.63-.08-1v-.35a.55.55 0 0 1 .31.34c-.11-.2.13-.52-.16-.63l.42-.8h.17a.35.35 0 0 0-.12-.1l1.8-3.51c-.16.13-.43.18-.62.3-.33-.55-.17.25-.66-.11zm1.5-.43l-.13.25a.36.36 0 0 0 .13-.25zM84.62 224c.32 0 .27.29.44.41l.27-.53c-.18-.1-.35-.26-.52-.33zm1.13-.14a1.21 1.21 0 0 1-.27-.32l-.15.3a.42.42 0 0 0 .42.02zm-9.59-5.04l.03-.1-.06-.22.03.32zm1.57-1.05c-.33 0-.24.29-.21.4.12-.25.17-.09.21-.4zm-3.08-1.25l-.02-.32h-.07l.09.32z"/><path class="cls-1" d="M89 212.9c-.21.4-.86.81-.24 1.19-.08-.07-.24-.19-.36-.15l.4.52.29-.13a.73.73 0 0 1-.51 1.15c0-.52-.7-.64 0-1-.18-.06-.52-.1-.54-.29-.18.8-.81 1.26-.64 2.27.82-.28.24.6 1 .78l-.06-.42.17.12.14-.41a1.74 1.74 0 0 1-.71-.22c.39-.44.46 0 1.07-.11l.23-.59.08.1s0-.1-.06-.14l.81-2c-.07-.52-.72-.16-1.07-.67zm1.82-3.18l-.26-.23.45.67.23-.55-.42-.28c.08.11.18.41 0 .39zm-.53.42c-.11-.38.63.17.17-.3-.37-.19-.32.23-.29.34l1 .58c-.03-.38-.56-.64-.88-.62zm-.45 2.48l-.18-.2-.16.16.34.04zm-.18-.2l.16-.15a3.37 3.37 0 0 0-.46-.17zM90 212h.07l.17-.17zm-.18.27c.38.16.78.33.83 0l-.59-.25zm-13.77 2.82h.07l-.09-.32-.07-.01.09.33zm.95-1.29a.44.44 0 0 0 .13.24 1.36 1.36 0 0 0-.13-.24z"/><path class="cls-1" d="M77.33 212.32a8.81 8.81 0 0 0-2.17-1.26c-.22-.07-.6.41 0 .73.5-.06.3.61.71.23.36.14.69.59.4.72-.31-.19-.09-.32-.49-.36.29.34 0 .26.52.47.17.4.5.61.73 1-.11-.46.72-.85.3-1.53zm-3.27-.58c-.11.09-.09.15-.06.26.3.13 0-.16.06-.26zm7.76.7c-.11-.09-.15-.38-.38-.44v.4c.04-.07.2-.02.38.04zm-.41.13v-.17s-.02.08 0 .17zm9.44-1.38c.23.13.17-.08.14-.19-.05.05-.17.09-.14.19zm1.95-5.84h.25c-.13-.04-.2-.05-.25 0zm-5.32-6.14c-.07.18-.29.51-.06.76-.14-.19.3-.3 0-.55l.09.06zm6.93-94.19l.07-.64-.87-.39.8 1.03zm-.5-.15c-2.65-.86 1 2.46-1.62 1.59l-.11-.12c.52 1.13-1.41 1-1.13 2 .68.91.82 2 2.54 3l-1.13-1.61c1.36.66 1.55.14 1.36-.52l-.19.51c-.1-.22-1-.62-1.08-.84 1.09-.34-.61-1.56 1.2-1.4l.12.11-.54-1c.29 0 .86.36 1.07.55-.4-.9-.94-1.68-.49-2.27zm.52 2.31c.07 0 0 0 0-.08zM76.3 130.64l.36.24a.68.68 0 0 0-.36-.24zm9.24-5.06h-.07c.53.36.38.26.07 0zM52.5 173.33l-.63-.16c.53.25.67.26.63.16zm3.63 9.67l.49.26a1.52 1.52 0 0 0-.49-.26zm-.98 3.94a.56.56 0 0 0-.39.15c.31.09.44 0 .39-.15zm-9.1-3.39a.62.62 0 0 0-.14-.22.8.8 0 0 1 .14.22zm13.89-5.12l1.33.59a11.41 11.41 0 0 0-1.33-.59zm-4.27 9.92a.94.94 0 0 0-.55-.08c.26.1.49.15.55.08zm35.08-79.76c-.16.08-.13.24 0 .44a.63.63 0 0 0 0-.44zM72 160a3.57 3.57 0 0 0 .44.34.94.94 0 0 0-.44-.34zm-6.58 11.07v.06a1 1 0 0 0 .22.07zm1.67-3.37l.24.2a1 1 0 0 0-.24-.2zm-1.42 6.95l-.36-.36a4 4 0 0 0 .36.36z"/><path class="cls-1" d="M92.8 111.35c-.88-.29-.92 0-1.5-.56 2 .6-.07-.94-.56-1.76-.09.23-.18.36.64 1-.16.2-.87-.4-1-.31l.7.82-1.14-.54.54 1c-1.22-.75-.44.39-1.63-.57.31.67-.7.37.36 1.43-.89-.18-.68-.92-1-.73.16 2.06-.91 3.48-2.23 4.77l-.47-.47c.47.47.81.93 1.17 1.28-1.15-.31-3 0-1.33 1.4-.14 0-.37-.25-.49-.37-.07.64-1.91.81-2.14 1.65 1.8 1.45-1.87.39.67 2.22l-.47-.48c.89.19 1.67 1.43 2.27 1.92-1.87-.81-1.35-.76-3.11-1.45l.78.07-1.44-.67c3.19 3.06-2.69.74-.32 2.88-.12-.12-.36-.25-.48-.36-1-.09.64 1.23 1 1.8A5.86 5.86 0 0 1 80 124c-1 .35.36 2.61-1.21 2.69.82.82 1.36.65 1.94 1.35a1.89 1.89 0 0 1-1.61-.78c-2.18-.4 0 2.79-2.27 2.82.78 1.14 1.44 1.09 1.7 2.3-.59-.59-2.48-1.18-2.29-1.7l-.73-.49c-.6.7-1.48 1.6.42 3.26-1.6-.88-.39 0-1.41-.22.11.22.25.13.38.14 1.18 1.07-.31.4-.22.73l-.23-.23.66 1.13a2.73 2.73 0 0 1-1.15-.31l1.11.63c-.16.31-1.49-.66-1.42-.12l.87.4c-.65-.06.28 1-1 .35-.25-.13-.12-.12-.11-.23-1.89-.58 0 1.29-1.06 1.31l1.86.91c.3.78-.53.07-1.15-.31-.16.31-.78 0-1.21.33.35.46.6.48 1.09.85l-.67.16-.83-.83c2.25 2.13-1.2 1.41 1 3.2-.64-.05-1-.83-1.33-.86-1.58.08.75 2.65-.94 2.51-1.85.27-1.28 2.15-2.79 2.78l.5.25-.85.58c1 .83.14 1.09 1.2 2.15a13.35 13.35 0 0 1-1.22-.75c0 .42.27 1.1-.5.92l-.35-.35a1.86 1.86 0 0 0-.67 2.53c0 .32-.9-.18-1.52-.45-.3.4 0 1 .59 1.77a4.15 4.15 0 0 1-1-.19l1.08.84c-.28.09-1-.51-1.38-.54 1 1.48-.69 1.55-.88 2.08l.62.26c.34.46-.7.37-1.15-.2-1.24.54 1 2.45 0 3.55-2.23-1.05 0 1.51-2.51.33.29.89-.86.68.32 1.86-.25-.13-.38-.14-.37-.25-1-.3-.74.8-.45 1.68l-.73-.38c1.44 1.09.45 1.76 1.89 2.85a2.53 2.53 0 0 1-.83-.72c-1.63-.56.42.9-.12 1.07A8.27 8.27 0 0 1 58 164c-2.38.24-.53 3.62-2.59 4.52-.31.41 1.74.79 1.29 1.29-.88-.28-1.43-1.19-2-1 .82.82.56.8.27 1.1-.49-.36-.86-.5-1.08-.95-.76-.18.75 1.57-.78 1.22a3.39 3.39 0 0 1 1 .73c1 1.38-2.15.57-1.42 1.07 0 0 .09.33.36.24-.15.2-.56.39-1.29-.11.35.36 1 .84.93 1l-.85-.61c.13.21.64.65.69.81l.64.16c-.89-.18.63 1.35-1.08.34v-.1h-1c.59.58 1.18 1.17.76 1.35-1.85-.91-.84.58-1.26.87l-.61-.38c.68.81-.16 1.39.23 1.42a.87.87 0 0 1-1.31 0c.21.45-.1 1 .86 1.69l-1.79-.37c2.05 1.57-1.37.53 1 1.91-.52.07-1-.3-1.53-.34.93 1 .51 1.33.09 1.62l-.25-.13c-.42.29.49 1.44.29 2.07l-1.85-.91c.08.44 1.42 1.31.89 1.37-.32-.09-.37-.21-.43-.34.2.48-.47.59-1 .54 1.05 1.16.39 1.22 1.56 2.39-1.76-.58-.42-.9-2.06-1.46-1.18.12-.65 1.24-.26 2.34a4.88 4.88 0 0 1-1-.61s3.53 3.81 5.37 4.54c1.08.84 1.67 1.43 3 1.43-.58-.59-1.12-1.6.24-.95l-1.22-.75c-.14-1.09 2.59 1.4 3.08.47h-.52c0-.21-.69-.81-.17-.77.37.14.48.36.71.6l-1.24-1.72a5.38 5.38 0 0 1 1.57 1.1c.34-.72-2.35-1.16-1.37-1.73.63.16.73.49 1.08.84 1.28.22.46-.6 0-1.39 1.11.63.83.82 1.73.9-.62-.27-1.61-.78-1.57-1.1 1 .76.7.14 1.13.06a3 3 0 0 1-1.06-.7c-.11-.23.4-.08.42-.29l-1.39-.28c-.8-1 .95-.35 1.61-.41a.89.89 0 0 1 .33.39c.65-.09 1.75.07 1-.92l.11.12c-.62-1.45-2-.81-2.48-2.36.42-.18 3.54 2.23 2.66.76-1.15-.2-2-1.79-2.21-2.44l1.91 1.66c.11-.16-.32-.79 0-.76l-.49-.25c-1.85-1 .56-.39-.38-1.33a26.34 26.34 0 0 0 4.23 3.05c-1.18-1.07-2.24-2.13-1.68-2.51l1.66 1.54c.83-.47-1.5-2.93-2.77-4.43a35 35 0 0 1 3 2l.1-.85 1.44 1.09c-1.43-1.2-.16-.88-2.25-2 .23.24.48.36.34.46-.62-.38-1.83-1.23-1.53-1.53.65.06.72.6 1.34.87-.71-.71.65.05.18-.53l-1-.3c-1.09-.84.17-.41-.29-1a3.64 3.64 0 0 0 1.87 1.19l-.16-.07c0-.22-.68-.92.07-.65l1.57 1.1-1.07-.95a1.94 1.94 0 0 1 1.11.64c1.46-.2-3.56-2-1.46-2.17.62.37 1 .73.44.79a3.51 3.51 0 0 0 2.13.82l.18.11a1.47 1.47 0 0 0-.09-2.15 2.92 2.92 0 0 1 1.21.86c.94-.25-.5-1.33.93-1.32l-.78-.07c-.68-.92-.45-1.76 1-1.43l.34.35c-.78-.95 1.41-.48.66-1.12-.64-.16-.86-.51-1.51-.56l-.48-1.63 1.73.9-.27-.83c-.75-.26.92-.36-.67-1.29.78.06 1.21.85 1.81 1.33-.33-.56.41-.18-.41-1l1.63.56-.63-1.34c.12.12.25.13.36.25-1-1.06 1.23-.44-.68-2.11a1.13 1.13 0 0 0 .24.17c-1-.91.14-1 .52-1.07-.07-.55-1.33-1-1.94-1.35 1-.88.71-.59-.51-2.52 2.17.51 2.61 2.37 4.3 2.41a3.11 3.11 0 0 1-1.31-2.27 9 9 0 0 1 3.45-.46l-1.24-.64-.26-1.1 1.53 1.42c-.35-.35-.92-1.15-1.37-1.73-.64-1.35 2.88 1.1 1.36-.53l.36.14c-.83-.72-.21-1-.24-1.76l1.44 1.09-.54.17c1.62.67.09-.75.38-1.05-.32-.67-1.69-1.22-2-1.68.14-.09-.2-.55.3-.4.66 0 1.85 1 2.45 1.5-1.43-1.2-1.17-1.18-1.46-2.17a3.33 3.33 0 0 1 1.18.8 3.16 3.16 0 0 0-1-1l1 .3c1.7 0-2.47-2.36-1.5-2.93.71.71.23-.84 1.37-.53.08.44 2.35 1.16 3.18 1.88 1-.35-1.68-1.33-1.73-2.08l1.81 1.33c-.54-1-1-.72-1.25-1.61.47.47.65.06 1.09.74.59-.6.32-.51.9-1l-1.84-1.13c-.09-.33.78.07 1.15.21 0 .11-.15.2.1.33 1.75.68-.68-.92 1-.35-.62-.27-1.49-.66-1.46-1 1.1.74 1.29.22 1.78.48-.88-.29 0-.76-1.27-1.51 1 .2.85.61 1.46 1-1.32-1.08.38-1.16-.32-1.86a2.4 2.4 0 0 1 .28.14c-.7-.83-.62-1.47-1.55-2.83l.95.83c.83-.36-2-1.68-1.71-2.19 1.46 1 .37-.94 1.93.27a11.7 11.7 0 0 0-2.1-2.33c1 .2 1.77 1.77 2.44 1.6l-.55-.9.86.39c-.6-.37-.43-.79-.92-1.05 1 .5 1.82.72 2.56 1.18-.14-.46 1-.31.3-1l.49.26c-1.68-1.33.12-1.07-1.7-2.3l1.12.42c.06-.54-1.91-1.56-2.25-2 0-.22-.07-.55.2-.63.9 1.26 1.63.57 2.38.84.16-.2.37-.93-.46-1.65.82.82 1.7 1.11 1.51 1.63 2 .82 0-1 .54-1.35l.86.5c-.14-1.09-1.61-2-2.92-3.15a7.52 7.52 0 0 1 2.25 1.55c.93-.13.67-1.34 1.12-1.84a2.31 2.31 0 0 1 1.46 1c-.49-1.06.93-1.21-.75-2.67.67.57.63 0 1.11 0a3.38 3.38 0 0 1-.8-.55c-.56-.8-.82-2 .1-2l.47.47c.87-.79-2.14-3.09-.15-3.35.51 0 1.45 1.09 1.62.67-.59-.59-2.07-1.36-1.39-1.62l1.23.74-1.06-1c-1.13-.42-1.08.34-2-.71 1.41.22-.93-1 .74-.8a7.92 7.92 0 0 0 1.36 1.28c2.11-.28-.31-2.27 1.91-2.51-.66-1.13-.43-2-1.12-2.89a16 16 0 0 1 3.15 2.2c.44-.4-2.23-2.24-.22-1.53-1.56-1.21-.3-2-2.62-3.45.5.26.32-.51 1.36.76-.4-1.11 2.57.32 2.73 0s-1.62-.67-1.44-1.08c.13 0 .38.13.5.14l-.47-.47c.64.16 1.08.85 1.7 1.22.81-.25-.86-1.68-.65-2.42l.35.35.47-.6.11.11-.54-1 .61.37c-.1-.22-.47-.47-.45-.68l.73.49c-1.08-.85-1.36-1.84-1.19-2.15l.37.14L89.7 111c1 .09 1.53 1.53 1.39.44l1.45 1.09c-.3-.91.58-.53.26-1.18z"/><path class="cls-1" d="M62.6 178.81c.35.13 1.2-.18.15-.76-.17.27-.31.52-.15.76zm23.27-46.18a1.08 1.08 0 0 0-.44-.1c.33.19.57.3.44.1zM81.34 144a4.61 4.61 0 0 0-1.23-1.08c.06.18.37.49 1.23 1.08zm-3.14 3.93l.2.22a.4.4 0 0 0-.2-.22zm-4.2 9.75c-.43-.5-.24-.74-.43-1.14.14.35-.57.46.43 1.14zm11.88-28.72l-.24-.12.7.7-.46-.58zm-.34 3.1a2.38 2.38 0 0 1-.56-.8c-.26-.02.02.65.56.8zm-5.98 6.82l.85.61-.59-.59-.26-.02zM54.75 66.7l-.85-.42.9.85-.05-.43zm.42 4.64L53.87 70c1.34.69 1.42.37 1.14-.12l-.08.32c-.14-.17-1-.6-1.12-.77.91 0-.83-1.19.83-.76l.12.1-.66-.77a3 3 0 0 1 1 .57c-.52-.67-1.12-1.3-.83-1.63-2.53-1.07 1.36 1.88-1.17.81l-.12-.1c.67.87-1.1.42-.67 1.16a10.37 10.37 0 0 0 2.86 2.53zm-.02-2.77l.05.06c.07.04.04 0-.05-.06zm-12.1 13.11l.37.24a1.29 1.29 0 0 0-.37-.24zm7.41-1.87h-.05c.5.33.38.24.05 0zm-21.24 27.25l-.6-.22c.52.27.64.3.6.22zm4.97 7.35l.48.26a2.15 2.15 0 0 0-.48-.26zm-.51 2.59c.29.12.39.09.32 0s-.28-.06-.32 0zm-8.62-4.17a1.34 1.34 0 0 1 .17.17.89.89 0 0 0-.17-.17zm11.74-.92l1.3.64c-.41-.23-.86-.44-1.3-.64zM34.71 118a1.47 1.47 0 0 0-.5-.16c.25.16.46.23.5.16zm17.43-49c-.13 0-.08.14.07.3a.36.36 0 0 0-.07-.3zm-7.72 32.29c.12.09.27.2.45.31a1.45 1.45 0 0 0-.45-.31zm-4 6.49l.21.09zm.47 2.22a4.08 4.08 0 0 0 .39.31z"/><path class="cls-1" d="M41.43 102.6a9.73 9.73 0 0 1 3 .29l-1.23-.67-.43-.8 1.63 1.25c-.38-.3-1-1-1.54-1.44-.81-1 2.78 1.27 1.13-.13l.41.19c-.87-.64-.37-.73-.53-1.26l1.49 1h-.46c1.58.75-.05-.5.16-.66A22.3 22.3 0 0 0 43 98.88c.12 0-.27-.42.21-.23a9.68 9.68 0 0 1 2.46 1.47c-1.5-1.08-1.26-1-1.69-1.76a4.84 4.84 0 0 1 1.19.77 4.48 4.48 0 0 0-1.17-.88l1 .39c1.53.32-2.64-2.08-1.87-2.3.76.62.06-.54 1.13-.13.16.32 2.32 1.23 3.2 1.87.79-.07-1.74-1.21-1.92-1.75l1.86 1.25c-.66-.8-1-.67-1.41-1.34.5.41.59.15 1.11.7.42-.31.19-.29.63-.53l-1.85-1.1c-.14-.25.71.18 1.07.34 0 .07-.1.11.14.25 1.7.78-.77-.76.8-.08-.61-.29-1.46-.72-1.48-.94 1.11.71 1.19.38 1.67.64-.84-.35-.17-.53-1.4-1.26.95.31.87.57 1.48.94-1.37-1 .15-.74-.61-1.35l.28.15c-.78-.7-.82-1.13-1.9-2.24l1 .75C47.6 92.4 44.8 91 45 90.69c1.48.94.16-.58 1.78.53a17.67 17.67 0 0 0-2.29-2c.95.32 1.89 1.54 2.47 1.54l-.66-.72.85.43c-.61-.37-.53-.63-1-.89 1 .52 1.77.82 2.51 1.26-.2-.34.87 0 .08-.67l.49.27c-1.74-1.22-.08-.72-1.93-1.89l1.08.48c0-.35-2-1.41-2.38-1.79 0-.15-.16-.39.07-.4 1 1 1.57.68 2.29 1 .1-.11.17-.58-.71-1.22.88.71 1.73 1.07 1.65 1.4 1.94.91-.19-.68.25-.85l.86.5c-.32-.78-1.8-1.64-3.18-2.7a12.64 12.64 0 0 1 2.36 1.52c.8.06.36-.82.67-1.09a3.74 3.74 0 0 1 1.49 1c-.62-.82.63-.67-1.15-2 .71.52.58.14 1 .22a6.77 6.77 0 0 1-.81-.52c-.65-.66-1.09-1.54-.27-1.4l.5.41c.64-.39-2.47-2.52-.73-2.35.47.12 1.49 1 1.58.76-.63-.51-2.1-1.31-1.53-1.37l1.23.73-1.15-.88c-1.09-.49-.91 0-1.93-.84 1.31.4-1-.89.52-.43a13.08 13.08 0 0 0 1.45 1.13c1.85.18-.68-1.63 1.27-1.4-.79-.9-.73-1.45-1.51-2.2a27.76 27.76 0 0 1 3.22 2.08c.32-.2-2.4-2-.47-1.1-1.62-1.11-.62-1.41-3-2.85.49.26.19-.3 1.35.76-.56-.84 2.37.68 2.46.5s-1.58-.76-1.49-1c.12 0 .36.16.48.19l-.51-.41A13.59 13.59 0 0 1 54 75.51c.69 0-1.07-1.32-1-1.79l.38.31.31-.34.12.1-.66-.8.61.37c-.13-.17-.5-.41-.52-.55l.74.47c-1.12-.78-1.55-1.52-1.45-1.7l.36.16-1.3-1.31c1 .24 1.65 1.33 1.33.55l1.49 1c-.42-.67.43-.24 0-.76-.85-.35-.82-.14-1.45-.65 1.92.77-.23-.66-.81-1.32 0 .14-.1.22.75.82-.1.11-.85-.43-1-.39l.77.68-1.09-.56.66.8c-1.23-.73-.32.2-1.56-.68.4.52-.56.14.58 1.06-.84-.29-.78-.76-1-.68.51 1.46-.2 2.25-1.16 2.91l-.5-.41c.5.41.89.79 1.27 1.1-1.08-.42-2.7-.56-1 .73a2.33 2.33 0 0 1-.5-.34c.05.43-1.58.22-1.63.77 1.87 1.32-1.61-.07 1 1.65l-.5-.41a11.35 11.35 0 0 1 2.5 1.7c-1.82-.88-1.34-.76-3-1.54l.71.18-1.47-.8c3.41 2.69-2.29 0 .22 1.94-.13-.1-.37-.23-.49-.33-1-.25.8 1 1.19 1.42a9.84 9.84 0 0 1-1.63-1.19c-.79.08.79 1.88-.61 1.66.89.71 1.34.69 2 1.27a3 3 0 0 1-1.66-.79c-2-.66.45 1.93-1.54 1.56.9.92 1.49 1 1.93 1.89-.63-.51-2.43-1.26-2.36-1.59l-.74-.47c-.41.39-1.05.85 1 2.34-1.6-.9-.36-.09-1.31-.4.13.17.24.13.36.16 1.26 1-.2.23-.06.47l-.25-.2.79.9a4.11 4.11 0 0 1-1.08-.42l1.1.63c-.09.19-1.46-.72-1.3-.33l.86.43c-.6-.15.42.74-.8.07-.24-.13-.12-.1-.13-.17-1.81-.74.21.89-.72.72l1.83 1c.41.59-.47-.05-1.09-.42-.09.19-.69-.11-1 0a6.13 6.13 0 0 0 1.12.78H41l-.89-.77c2.39 1.87-.83.76 1.42 2.38-.59-.15-1-.74-1.36-.83-1.4-.22 1.14 2-.39 1.57-1.62-.14-.77 1.26-2 1.43l.49.27-.66.25c1 .74.32.78 1.46 1.7-.37-.24-1-.53-1.23-.74 0 .29.43.81-.28.56l-.38-.31c-.55.28-.93.88-.16 1.63 0 .22-.83-.28-1.44-.58-.2.23.19.68.84 1.33a6.51 6.51 0 0 1-.95-.31l1.12.78c-.23 0-1-.53-1.34-.62 1.18 1.2-.34 1-.42 1.28l.61.3c.38.38-.56.13-1.08-.35-1 .16 1.37 1.89.63 2.46-2.19-1.12.23 1-2.21-.22.43.67-.64.33.62 1.35-.24-.13-.36-.16-.37-.24-1-.38-.53.43-.11 1.09l-.73-.4c1.49 1 .72 1.3 2.21 2.31a3.7 3.7 0 0 1-.87-.64c-1.57-.68.54.7.08.72-.37-.24-.85-.43-1.11-.63-2.09-.26.17 2.41-1.52 2.67-.21.23 1.7.86 1.39 1.13-.85-.36-1.5-1.08-2-1.06.89.71.65.65.44.81a4.54 4.54 0 0 1-1.13-.85c-.72-.26.94 1.22-.49.71a5.91 5.91 0 0 1 1 .67c1.16 1.14-1.83 0-1.09.49 0 0 .14.25.37.23-.1.12-.44.17-1.18-.3.38.31 1 .75 1 .89l-.87-.57c.16.17.69.56.77.68l.6.23c-.84-.29.8 1-.91 0v-.07l-.93-.17c.63.51 1.26 1 .92 1.07-1.83-1-.66.25-1 .38l-.62-.37c.76.68.1.93.46 1-.09.19-.67.18-1.17-.23.27.35.07.65 1.07 1.32l-1.61-.49c2.11 1.45-1.14.13 1.2 1.5a13.12 13.12 0 0 1-1.44-.51c1 .89.69 1 .37 1.14l-.25-.13c-.33.12.7 1.08.63 1.48l-1.83-1c.15.32 1.51 1.16 1 1.11a.79.79 0 0 1-.44-.31c.26.37-.32.32-.83.19 1.14 1 .56.91 1.82 1.93-1.68-.71-.53-.69-2.1-1.37-1.05-.13-.38.74.18 1.57a7.07 7.07 0 0 1-1-.6 41.13 41.13 0 0 0 5.63 4.1 7.27 7.27 0 0 0 2.92 1.52c-.63-.51-1.29-1.31.05-.62L30.7 119c-.32-.78 2.57 1.42 2.85.87l-.47-.12c0-.15-.77-.69-.3-.57a3 3 0 0 1 .75.54l-1.42-1.41a10.23 10.23 0 0 1 1.61 1c.18-.44-2.32-1.22-1.54-1.44a3.26 3.26 0 0 1 1.12.78c1.19.37.31-.34-.23-1 1.11.63.89.71 1.71.92-.6-.29-1.58-.82-1.6-1 1.07.72.66.23 1 .24a4.63 4.63 0 0 1-1.08-.67c-.14-.17.34 0 .33-.12l-1.2-.45c-.9-.86.79-.08 1.38 0a1.51 1.51 0 0 1 .39.43c.57.05 1.58.36.77-.45l.12.1c-.81-1.12-1.94-.92-2.64-2.08.34 0 3.57 2.18 2.52 1a5.41 5.41 0 0 1-2.41-2.08l2 1.49c.07-.09-.42-.6-.17-.53l-.49-.27c-1.84-1 .43-.17-.58-1a43.19 43.19 0 0 0 4.34 2.82c-1.25-1-2.39-1.87-2-2l1.76 1.36c.67-.18-1.87-2.29-3.27-3.56 1.36.91 2 1 3.08 1.91l-.06-.58 1.49 1c-1.5-1.08-.3-.63-2.39-1.8.26.21.5.34.39.38-.62-.37-1.85-1.17-1.64-1.33.59.16.75.54 1.35.84-.75-.61.6.15.08-.33l-1-.39c-1.12-.77.09-.25-.43-.73a6.16 6.16 0 0 0 1.89 1.15l-.16-.08c0-.14-.77-.76 0-.43l1.61 1-1.13-.85a3.16 3.16 0 0 1 1.11.63c1.27.12-3.56-2-1.7-1.76.62.37 1 .68.54.63a5.8 5.8 0 0 0 2 1l.19.1c.2-.3.53-.66-.46-1.5a4.74 4.74 0 0 1 1.24.81c.8 0-.69-1 .6-.76l-.71-.18c-.78-.76-.72-1.3.59-.82l.37.3c-.87-.8 1.18-.08.39-.66a13.29 13.29 0 0 0-1.45-.66l-.7-1.15 1.71.92-.39-.62c-.72-.31.76-.09-.83-1a6.3 6.3 0 0 1 1.86 1.24c-.39-.45.34 0-.54-.76l1.56.68-.8-1c.12.1.24.14.37.24-1.14-.92 1-.09-1-1.58a1.3 1.3 0 0 0 .23.15c-1.08-.8 0-.66.28-.64-.16-.4-1.36-.91-2-1.28.76-.43.54-.28-.9-1.84 2 .74 2.76 2.11 4.29 2.43a3.89 3.89 0 0 1-1.45-1.88z"/><path class="cls-1" d="M39.26 112.64c.34.15 1 .09 0-.5-.11.16-.19.31 0 .5zM52 84.75a1.51 1.51 0 0 0-.41-.14c.33.19.59.31.41.14zm-2.06 7.07a7.8 7.8 0 0 0-1.3-1 4.84 4.84 0 0 0 1.3 1zM47.82 94l.22.19a.93.93 0 0 0-.22-.19zm-2.1 6c-.47-.42-.35-.56-.59-.87.24.29-.42.19.59.87zm5.65-17.78l-.25-.14.76.62-.51-.48zm.23 2.08a3.64 3.64 0 0 1-.64-.65c-.24-.07.16.46.64.65zm-3.29 4.24l-.63-.51-.24-.06.87.57zm48.21-30.29a.74.74 0 0 1-.14 0c.08.14.11.1.14 0zm0 0a1.44 1.44 0 0 0 .79-.62v-.4c-.76-.23-.72.71-.79 1.02zm-1.16-1.04l-.51.23c.21-.15.62.15.51-.23zm.44.61l-.13.23h.46l-.33-.23zM87 80l.54.26A1.66 1.66 0 0 0 87 80zm-2.33.1a.86.86 0 0 1 .21-.13c-.14.03-.2.03-.21.13zm2.61-.83v-.19a.18.18 0 0 0 0 .19zM93 68.14h-.86c.41.14.98.46.86 0zM77.64 81.37l-.25-.21c-.03.13.1.18.25.21zm2.82-3.69h.09a1.59 1.59 0 0 0-.34-.24zm6.93.32h-.25c.19.16.26.15.25 0zm-11.15 4.22a.92.92 0 0 0-.69-.2 5.7 5.7 0 0 0 .69.2zm8.43-2.12s0 .01 0 0zM81 76.42a2.06 2.06 0 0 0 .26-.12c-.11-.03-.26 0-.26.12zm10.88-8.25h.29c-.17-.04-.24-.05-.29 0zm4.47-8.45a1.15 1.15 0 0 0-.5 0c.22.04.43.13.5 0zm-22.78 42.4a1.07 1.07 0 0 0-.25-.07c.16.1.3.15.25.07zM89 65.56l.28-.27c-.16-.16-.23 0-.31 0 .37.09.03.18.03.27zm-15.95 35.87h-.69c.34.29.7.1.69 0zm-2.22 2.16a1.49 1.49 0 0 0-.51-.18 1.26 1.26 0 0 0 .51.18zM73 92.49c.52.28.59 0 .76-.14-.16 0-.39-.21-.57-.32l-.09-.18-.3.17h.23c.43.16.23.51-.03.47zm-1.44 11.94l.05-.21-.87-.3.82.51zM75.3 89.6l.91-.12-.79-.21-.12.33zm-4.21 11.29l-.23.05.96.38-.73-.43zm-.24-9.61l-.08-.08-.45.11.08.08.45-.11zM83.8 73.83l-.35.38c.4.21.36-.21.35-.38zm.5.49c0 .09-.07.11-.21.15.53 0 1.28-.21 1.69.1-.78-.52-1.41-.37-1.48-.25zm-3.35 9.75l-.09-.08-.27.37.36-.29z"/><path class="cls-1" d="M96.47 59.29l-.74-.54c.26.35.07.8-.41.61-.65-.46 0-.62.08-.83-.7.67-1.92-.05-1.83.94h.31c.33.78-.91.64-1.11 1a.89.89 0 0 0-.53-.42c.11 1.19-.84 1.73-1 2.89l-.94-.18.57.37c0 .56-.71-.2-.94-.11.06 0 .13 0 .25.08-1 .13.36.62 0 .81.71.24.58-.44 1.32.19-1 .14-1.12 1.19-2.57.42 0 1.33-1.66 2-2.28 2.79.17.26.23 0 .4.2-1-.16-.1 1.45-.83 1 .1.28.6.67.76.83a1.61 1.61 0 0 0-1.06.36l.32-.08.09.08-.46.11c-.62.55-.91 1.43-2.05 1.56.68-.06.82.62 1.2.63a1.47 1.47 0 0 0-2.06 1 2.19 2.19 0 0 0 .65.35l-.69.06.32.13c-.16.76-1.86.65-1.56 1.4.29-.17.53 0 .93.18a2.77 2.77 0 0 1-1.31 1.18.74.74 0 0 1 .27.1c0 .2-.37.19-.59.24l.57.37c-.43.11-.34.63-1 .67.56.51-1 .41-1 .93-.22.06.85.1.58.47-1.29-.7-.34.49-1.71-.3l.29.65-.71-.34c1.1 1.06-.83.1-.69.78.16.07.23 0 .32.13-.23 0-.51.32-.71-.14-.13.24-.92.83 0 .92-.4-.21.12-.34.35-.39.56.37.13.58.7 1a1.61 1.61 0 0 0-.31-.07l.33.27c-.9 0-.71.76-1.73.58.17.13.26.29.13.41l-.73-.43-.26.47 1.19.42c-.1.64-1.52.27-1.95.57 1.15.84-1 .54-.09 1.55l.53-.13c-.65.56 0 1.12-.79 1.51a4.2 4.2 0 0 0-.33-2c0 1.11-1.53 1-1.27 2.14.31.12.61 0 .8.41-.71-.23-.4.71-1.06.16.11.38.76.83.78 1l-1.36.22.16.07c.9 2.32-2.61 1.74-2.68 3.49l.4.21h-.77c.54 0 .42.41.75.63l-1.35.33c.32.22 1.13.64 1.1.35.2.55-.81.39-1 .64l.4.11-.45.11.48.29c-.5.33-.35 1.2-1.22.91l.8.41-.91.12h.7c-.17.65-1.28 1.12-1.35 1.24l.32.12c.09.18-.14.14-.29.18l.47.19c-.62.75.22 1.57-.8 2.22 0 .32.23 0 .47.09.26.35-.26.47-.5.43.72.33.75-.18 1.12.44-.46 0 .71.24.35.53l-1-.38c0 .29.65.45.37.72-.61.15-.71-1-1.2-.53-.13.34 1.62 1.85.8 2.15.15.78 1.51.55.87 1.11l.83-.1c.18.27.66.46.29.65-.39-.11-.94-.19-1.08 0 1-.25.64 1.17 1.86 1.08l-.17.2a.34.34 0 0 1 .2.1l-.12.33c.3-.07.64-.46 1.16.13l-.11.53c.55.18.65.46 1.06.66l1.7-.71c-.32-.13-.62-.06-.87-.3-.05-.5.69 0 .49-.53l-.47-.09c.16.07.23.05.24.15.18.26-.14.14-.38 0-.42-.41.1-.53.5-.42.19-.46-.83-.62-.92-.8 1 .28.4-.71.94-.74l-.63-.15c-.45-.7.25-.67.55-.74l-.48-.19c.35-.39-1-1.49.76-.9l-.31-.12c0-.27-.19-.74.38-.63-.18-.12-.39-.28-.4-.39.66.26.32-.2.37-.53-.26.09-1-.44-1.29-.36-.54-.89 1.08.14 1.28-.21-.27-.45-.54-.08-.86-.2.74-.28-1.11-2.17.63-1.58l.35.53c.46 0 .53-.13.37-.19 0 .1-.15 0-.31 0-.41-1.12 1.74-.31 1.82-1.15a4.71 4.71 0 0 1-.72-.23c-.12-.48 1.67.61 1.36-.23l-.39-.11c-.1-.28.45-.1.54 0-1.3-.81.68-1-.82-2.35.86.2 1.82-.13 1.55-.58-.6-.77-1-.26-1.68-.81.13-.23.93.08.88-.42.73.44 1.07 1.58 1.87 1.18l-.32-.43c0 .1.1.28-.05.32-.54-.07-.42-.41-.59-.57l.64-.56c.81.42.37.72.54.88.17-.64-.56-2 .27-2.19l-.35-.09c1-.25-1.19-1.24.37-1 0-.4-.88-.4-.69-.85.07-.12.32.12.4.2.58-.34-.6-.67.4-.7l-.88-.4c.9-.22 2.69.06 2.63-.63-.65-.36-.77 0-1.32-.19 1.53 0 1.09-1.49 2.07-1.72.43.5 1.42.47 1.63 1.13-.88-.4-.45.11-.66.26 2 .74 0-1.93 1.59-1.09l-.54-.48c.15 0 .77 0 .87.3v-.91c-.62 0-2-.23-1.43.34-.79-.21-.28-.54-1.15-.84 1.32.19-.28-.54.23-.87.78.77 1.52.29 1.94.58-.07-.25.55-.33.94-.27.25-.22-.11-1.28.46-1.52a2.56 2.56 0 0 1-1.49-.35c.46 0 .6-.25-.06-.7-1.69 0 1.41 1.18.2 1.38a1.74 1.74 0 0 0-1.61 0 5.3 5.3 0 0 0-1.07-.86c1.88.56.83-1 2-1.09.62.06 1.53.85 2 .43l.22.76c-.14-.78.55.17 1-.14l-.63-.15c0-.32.2-.36.67-.26l-.95-.28c0-.2 0-.52.52-.23a3.52 3.52 0 0 0-.47-.35c.15.06.28 0 .35-.13-.15 0-.14.14-.38 0 .56-.49-.8-.68-.49-1a.6.6 0 0 1-.42-.5c1.28.79 1.91.14 2.74.37l.83-.2c-.17 0-.45-.28-.5-.51-.1-.29-1.51-.66-.84-.92h.53c-.07 0-.24-.14-.33-.23l.51-.05c-1-1.13 1.14-.35.84-1.18 0 .2-.2.35-.54 0-.09-.18.14-.23.37-.19l-.16-.06 1.3-.46c-.48-.18-.82.3-1.17-.22-.51-.49.27-.37.41-.51.33.23.45.71.81.52-.14-.14-.32-.64-.64-.65a4.74 4.74 0 0 1 1.78-.37c-.09-.18-.32-.12-.39-.11l.08.08c-.3.08-.88-.49-.75.09-1.14-.65 0-.72.05-1.14l-1.07.08c-1-1.79 1.36-2 1.9-2.8.19.46-.27.47.62 1 .74-.28.51-.33 1-.75h-.08c-.28-.55.81-.4.14-1-.55-.17.21.66-.76.08l.48-.63c-.7-.13-.48.63-.77.8-.06.22.36-.29.94.18-.41.61-1.12.37-2.22.13-.78-.22-.52-.69-.45-.81 1.24.21 2.06-.09 2-1l-.53-.79c.85.1 2.09 1 2.26.37L92 68.6c-.13-.25-.16-.37-.12-.43h-1.69c-.93-1 1.1-.57 1.61-.9-.16-.06-.3.07-.62 0 .16-.86 1.93-.77 2.43-1.2-.35-.52-.59.25-1.26-.3.45-.11 0-.82.73-.48-1-.47.32-.69-.91-.7.2-1.27 1.76-1.85 2.92-2.54a2.16 2.16 0 0 1-.73-.43 1.34 1.34 0 0 1-1.56.38c-.36-.52 1-.14.73-.38-.31 0-.44.21-.93-.08-.36-.63.51-.33.73-.48l.17.26c1-.25 1.9.66 2-.19-.43-.6-.48-.29-1.21-.73.39 0-.09-1 .78-.69l-.19.45c.38-.16.55-.44.92-.49a.77.77 0 0 0-.43-.13c.42-.09.54-.43 1.1-.25zM67.65 97.54c-.28-.54.62.06.91-.11.29.64-.7-.04-.91.11zm1.43-.24c.27.44.11.38-.11.43a.24.24 0 0 1 .11-.43zm-.25 5.76l.22-.06a2.93 2.93 0 0 1 .56.27.54.54 0 0 1-.78-.21zm2.26-2.18l.73.44-1-.38zm-.32-9.68l.08.08-.45.11-.08-.08zm.79 13.23l-.82-.51.87.3zm-.73-.84a1.26 1.26 0 0 1-.51-.18 1.49 1.49 0 0 1 .51.18c.26 0 .43-.09.31-.38-.4-.21-.22.05-.38.09 0-.1-.18-.36 0-.42a4.52 4.52 0 0 0 1.23.83c.15.65-.58.17-1.16-.12zm2.22-2.16c0 .1-.35.29-.69 0zm-.53.94c-.22 0-.77-.12-.59.24.16.07.25.15.31 0v.32c-.85-.13-.9-.53-1-.94a1.35 1.35 0 0 1-.3-.29c0-.08.1 0 .22 0a.65.65 0 0 0-.17-.27l.16.06c.22.21.13.23 0 .21a2 2 0 0 1 .08.33 2.78 2.78 0 0 0 1.29.34zm2.94-8.43c.4.2.79 1.13 0 .81.04-.32.25-.57 0-.81zm-.83-3.27l.06-.21c.36.62-.7-.14-.68.16v-.2c-.42-.4-.46 0-.87-.2-.1-.28.5-.42.52-.22.03.5.86.3.97.67zm-.95-1.53c-.49 0 .33.62-.62.29-.59-.66.24-.34.62-.29zm-.55 2.71l.09.18c.18.11.41.32.57.32a.16.16 0 0 0 .14-.08.16.16 0 0 1-.14.08c-.17.15-.24.42-.76.14.23 0 .43-.31 0-.52h-.23zm0 6.6c-.47-.19-.09-.18-.34-.42l.59-.25c.86.62-.23.37-.21.67zm1.19-3c-.72-.34-.33-.33-.68-.75.09.18.8.31.77 0l.66.55c-.44-.25-.63.15-.71.17zm2.1-12.71l.17-.16c0-.06 0-.11.11-.11l-.11.11c.07.13.33.42-.13.13zm.7 1.05c-.69 0 .55 1-.5.43.16 0 .23-.06.22-.16-.32-.12-.86-.19-.88-.39.44.07.72-.2 1.2.09zM75.3 89.6l.12-.33.79.21zm.7-2.11c.14-.14 1.46.06.25-.57l.48.19v.1l.45-.11c.42.73-.84.32-1.18.39zm3.9.79l.08.08-.45.11-.08-.08zm1.21-2.73l.42.4-.46-.09zm-1.47-1.66c.1-.14 0-.23.49.06.24 0 .06-.21.29-.17.24.53-.49.06-.78.11a.44.44 0 0 1-.12.11c.05-.08.1-.1.16-.11zM79.5 85c1 .48.73-.38 1-.35.08.42-.09 1.18-1 .35zm1.36-1l.09.08-.36.29zm.14-6.15v-.1l.54.08zm4.68-6c0 .22-.23.77-.25.68-.43-.32-.05-.71.26-.69zm-1-.56c.11-.13.25-.07.37 0h.32c.09.51-.09.17-.32 0zm-.85 2.55c0 .2 0 .59-.35.38zm-.72.58v.22c.24.38 1.15 1 .06.67l-.06-.67c-.06-.1-.11-.18-.03-.23zM82 76.31c.12-.34.9-.22 1.39.17-.29.17-.4.6-1.11.37.41.09-1.02-.48-.28-.54zm3 4.83c-.86-.36-.86.71-2.35-.51.46 0-.87-1.21.24-.77l-.12.34c.07 0 .68-.07.73-.38 1.17 1.14-.31 0-.08.83.26-.65.96.13 1.49.49zm-1.22-6c-.13-.58 1 0 1.4.27.54 0 0-.3 0-.5l.58.47c-.76.19-1.13-.02-2.07-.2zm.4-.71c.14 0 .22-.06.21-.15s.67-.27 1.48.25c-.5-.27-1.25-.09-1.78-.06zm2.29-1c.38-.09.51.19.72.24a.46.46 0 0 0 .29-.08.33.33 0 0 1-.29.08 1.12 1.12 0 0 1-.81-.16zm.46 1.82l.54-.51-.52-.21.55.18.11.05zm1.44-1.16c.2.56-.64.56-1.2.29l.59-.14-.54-.08zm1-8.88l-.28.27c0-.09.37-.18 0-.29-.09.06 0-.06.16.1zm.16 4.09c.1.07.16.15.15.21a.62.62 0 0 1-.15-.21 1.64 1.64 0 0 0-.43-.24.54.54 0 0 1-.31 0h.31c.15 0 .24-.26.11-.45-.31-.13-.37.09-.61 0-.52-.69 1.92 0-.17-1.08.31 0 1.07-.05 1.33.3a1.37 1.37 0 0 0-.35 1.55zm1.53-3.27l.14-.14.11.38zm1.78-3.28l-.21.25-.63-.4z"/><path class="cls-1" d="M83.33 80.65c-.23-.86 1.25.31.08-.83 0 .31-.66.36-.73.38l.12-.34c-1.11-.44.22.76-.24.77 1.49 1.22 1.49.15 2.35.51-.53-.36-1.23-1.14-1.58-.49zm-2.32-2.8l.53-.02-.54-.08.01.1zm2.33-1.37c-.49-.39-1.27-.51-1.39-.17-.69.06.74.63.28.54.71.23.82-.2 1.11-.37zm6.49-13.36h.06c.06 0-.04-.03-.06 0zM70.8 102.88c-.22.06 0 .32 0 .42.16 0 0-.3.38-.09.12.29 0 .41-.31.38.58.29 1.31.77 1.2.12a4.52 4.52 0 0 1-1.27-.83zm2.59-1.94a.3.3 0 0 0-.1.19c.07-.02.11-.07.1-.19zm10.26-15.79a.51.51 0 0 0-.2-.23.44.44 0 0 0 .2.23zm.8-.5h-.06zm12.36-24.02c.07-.12.76-.09 0-.32-.34-.11.07.2 0 .32zm-1.53-.04c.39.06.51 0 .53-.07a.69.69 0 0 1-.53.07zm.53-.07A.49.49 0 0 0 96 60c-.32.15-.14.39-.19.52zm-1.41 2.31s0 .4-.43.31c.7.14 1.19.43 1.55.14-.32-.13-1.12.37-1.12-.45zm-1.08.77a.22.22 0 0 1 0 .21c.04-.03.06-.09 0-.21zm-.87.52c.39.11.87.3 1.08.14-.45-.18-.32-.29-.24-.45-.22.13-1-.13-.84.31zm-.31 7.8a.29.29 0 0 0-.38 0c0 .1 0 .41.18.36zm-2.86.59l.81.51c.23 0-.48-.29-.28-.54zm-3.54-2.71h.05l.08-.07zm5.11 4.87l-1-.36a1.59 1.59 0 0 0 1 .36zm-1.05 1.07l-.2.35.58-.34-.38-.01zm-1.22 1l-.27.37.44-.21-.17-.16zm-9.16 13.39c-.84-.81.65-.36-.25-1.06.1.29-.56.65.25 1.06zm-5.59 9.69l-.5.42c.43-.31.56.17.5-.42zM87.71 38c.5.37-.45.51.13.93l.27-.68.17.12c-.13-.25.1-.5.22-.57s.24.12.2.25c.43-.78-.85-.68-.71-1.43 0 .05 0 .09-.13.14s-.38.19-.47.07c.18.49-.21.31.42.67.22.37-.33.38-.48 0l.1.81zm1.08-1.17c-.11-.19 0-.25.06-.38l.63 1c.8.18.64-.57 1-.64-.78 0-.22-.37-1-.1l-.48-.63.4-.39c-.23-.12-.26-.55-.58-.42v.25c-.49-.3 0-.75-.54-.86 0 .43-.18.44.12.87a1.3 1.3 0 0 1-.71.57c0 .14.33.3.33.46a.32.32 0 0 1 0-.09zM92.22 31v-.05zm-3.88 2.1l-.08-.1zm7.74-10.65c-.13 0-.33.07-.42-.06.1.19.49.37.42.06zm-12.01 7.31a2.12 2.12 0 0 1 .2.24c-.07-.13-.13-.24-.2-.24zM90.45 18a.16.16 0 0 0 .14 0c-.11-.1-.14-.08-.14 0zM89 34.46c.16.12.17 1.11.59.48.55.3.05.56.1.81.2-.06.34.24.56.3 0-.12-.14-.31 0-.43a.28.28 0 0 1 .18.49c.4-.07.31.49.69.3a2.49 2.49 0 0 0-.47-2.17c0 .44-.07.94-.45 1.13l-.48-.37c.6-.13.38-.5.59-.82l-.63.64c-.58.16-.55-.13-.51-.45a.17.17 0 0 1-.17.09zm-4.06-2.6v.06zm10.3-23.08h.2s-.1-.03-.2 0zm1.31 3.58v-.07zm-.75.64a.92.92 0 0 0-.14-.14c.06.39-.42.82.07 1.13 0-.1.59-.46.85-.23 0-.26.48-.38.45-.54-.45.2-.46-.17-.52-.48.25-.13.4.24.58.11l.17-.5-.27.38-.44-.37v.06c-.07.81-.73-.29-.75.58zm-.14-.14a.41.41 0 0 0-.07-.17c-.02.07.02.12.07.17zm-3.74 11.28A.57.57 0 0 0 92 24c-.12 0-.09.08-.08.14zm4.66-10.38a.4.4 0 0 0 .12.22.34.34 0 0 0-.12-.22zM91 23.72a1.27 1.27 0 0 1-.5 0c-.06.12.1.3.12.45 0-.17.11-.35.38-.45zm6.18-16.28c-.3.26-.08.54.13.82v-.8z"/><path class="cls-1" d="M97.12 15.28A1.13 1.13 0 0 1 96 15.1l.24-.62c-.22.14-.57.1-.7.22-.06.06-.08.14 0 .29s.18.19.38.29c.2.33.43.74.71 1.25l-.08-.06-.2.69-.19-.16.19.56c-.47-.24-.27 0-.59-.18-1-.17-.07 1-.69 1.32l-.18-.18c.31.49-.5.94-.83 1.32l-.06-.09a.56.56 0 0 0-.58-.53c-.06-.14 0-.31-.12-.45.12-.13.15-.63.61-.45-.15.31-.08.31.27.31-.25-.5.29-.94-.4-1.24.18-.44.19-.07.57-.26a.77.77 0 0 1 .44.43l.33-1.38c-.49-.3-.85.58-1.29-.16-.11-.18-.88-.54-.46-.86a.19.19 0 0 1 .11.15c0-.24.2-.19.4-.35.53.18.23.43.51.74 0-.19-.17-.43 0-.56l.16.12.11-.5c-.29-.37-.22.32-.52.2l-.16-.43c0-.38.34-1.32 1.19-1.27.43-.26-.22-.37-.48-.61-.3-.43.33-.38.27-.69-.39-.18-.23-.43-.7-.67l.28-.32c-.61-.55-.34.38-.7.32-.72-.11-.08-.37-.51-.42-.07.31.24.49.28.68s-.23.19-.47.07c.49-.32-.38-.49-.1-.81l.15.06c-.47-.24.07-.62-.06-.93.74-.14.56.67.72.73l.08-.56c.22.37.62.3.79.73 0-.37.44-.19.28-.62.56.67.74-.14 1.2 0 0 .43-1 .7-1.07.57.16.06-.11.44-.37.51l.53.55c.16-.25.05-.75.55-.38l-.11-.5c.68.79.66.76.87 1.28 1-.35-.16-1.61.74-1.87v.12V9c-.49-.25-.41-.91-.59-1.42-.69 0 0-.75-.93-.79l.28.37c-.1.19-.41 0-.37-.12 0 .31-.1.19.16.43-.41 1-.73-.48-1.46.34-.11-.19 0-.44-.33-.56l.4-.44-.5-.25c-.36.63.07 1.31.7 2-.17-.81.53.18.9 0 .18.23 0 .28-.16.28.11.11.06.44.34.53-1.21-.41-1.84.84-2.86 0-.52.19-.42 1.62-.73 2.44l-.19-.42c-1.39.33.45 1.11.51 1.73-.2-.62-.67.14-1.09.15.2.55.68 1.16.36 1.67-.51-.12-1.28-.48-1.49-.16l.3.43c-.21.31-.08.93-.48 1v-.06c-.43.26.28.62.5.37l.11.49-.21-.01c.07.62.59 1.42.34 2.23-.37-.42-1.15.15-1-.6.13.31.51.11.73.17.23-.19-.17-.66-.17-.79a3 3 0 0 1-1.2-.74c.53.87-.85 1.89.35 2.61-.37.57-.44 1.5-1 2.07a.52.52 0 0 1 .29.06l-.83.33v-.19l-.59.2a.46.46 0 0 1-.31-.5c0-.12.18-.12.2 0-.2-.62-.36.25-.67-.24.12-.06.08-.25.14-.31-.56.32.13.93-.72.88.3.43.52 1.11 0 1.37-.21-.31-.17.5-.63 0 .21.31-.38.51-.05.75-.09-.12 0-.31.2-.38.06.25.37.43.2.62a.31.31 0 0 1-.15-.06c.16.44 1.12.67.88 1.17-.39 1.44-1.14-.79-1.48-.72a.66.66 0 0 1-.2 1l-.1-.12c0 .18.18.49-.17.5a11.52 11.52 0 0 1 1 .91l-.21.63-.19-.25a.77.77 0 0 1 0 .44c-.37-.12-.19-.25-.24-.49-.36-.06-.41.06-.13.37l.05-.06c.13.24.37 1.05.71.67.17.49-.58.26-.51.57-.3-.12-.29-.37-.56-.36-.17.18-.29.31-.23.56.18-.13.25.18.55 0 .11.18 0 .49.19.55 0-.12-.12-.24.14-.31a.89.89 0 0 1-.5.88.52.52 0 0 1-.16-.17c.31.64-.11 1.17.35 1.72l.18-.06c-.12-.17 0-.37.14-.38 0 .38.64.05.74.49s-.77.63-.24 1.18c.27-.38.88-.76.68-1.07l-.16.25-.49-1c.31.12.08-.63.55-.39a5.9 5.9 0 0 1-.15.63c.22.06.38-.51.55-.7l-.31.2c-.14-.68.29-1.25.23-1.87.19.55.56-.32.8.17.19.24-.29.25-.15.25.4.24.22-.25.58-.2-.25-.18-.16-.74-.62-.61.27-.06 0-.62.41-.69-.52-.18-.12-.56-.3-.74a.56.56 0 0 1 .36-.13c.06.28.15.63.25 1-.13.06-.23.25-.09.25l.18.09c.21.73.43 1.47.51 1.83l-.19-.25c.42.68-.4.75-.13 1.37-.08-.06-.09-.12-.15-.06-.32.44.44 1.05-.15 1.25l-.24-.18a.73.73 0 0 0 .45.49c.06-.38 0-.5.19-.75a.9.9 0 0 1 .17.79l.47.25c.38.49-.48.38-.09.87l.46-.13v.07a.41.41 0 0 0-.09-.38c0-.56.74-.45 1-.39.25-.13.57.36.87.48.06-.37-.48-.61-.42-1a.17.17 0 0 1 .23.12l-.15-.37c.16.06.54-.44.71.05 0 0-.07.14-.12.2.56-.28 1.33-.89 1.85-.6.24-.19-.06-.25.29-.57-.28-.37-.77-.36-.82-.91l-.35.24c0 .11.1.21.12.32l.13-.38c.07.31.29.37.62.61-.23.57-1 .4-1.27.59-.2-.31 0-.56-.49-.68.54-.07-.25-.49.28-.63l.1.13c-.23-.43.22-.26 0-.63a.35.35 0 0 0 .22.06c0-.56-.34 0-.56-.67.27-.38.82.23 1.1.23.28 1 .77.36.91 1.35.63.3.85.05 1-.39-.39.13-.83-.61-1.43-.47 0-.75-1.25-1.29-.36-1.68l.08.06-.31-.49.43-.25c.54.55.08.68.37 1.05.87-.14-.34-.93 0-1.43 1-.08.16.74.78 1-.11-.19.35-.32.52-.2-.48.39.24.5-.37.88-.08-.37-.23-.06-.47-.24.17.18 0 .75-.26 1.06.41.31.53-.13.85-.26-.29-.68.82-.7.41-1.32.17-.5.46.18.53.18.42-.32-.29-.37-.33-.55 0-.81.88-.45 1.13-.89-.42-.68.24-1.5.59-2.13a1.16 1.16 0 0 0 .61.24c-.66-.8-.39-.49-.68-1.23l-.51.26c.06-.38-.4-.93.21-1-1 0-.32-.81-.46-1.18.44-.19 0-.81.6-.75v.06l.33-.44.71.42v-.77a.31.31 0 0 0-.18-.09.5.5 0 0 1 .18-.09v-5.23c-.2-.02-.31-.13-.28-.21zm-6.66 10.5c.49 1.61-1.36.06-1.09 1.3A2.17 2.17 0 0 0 89 27l-.16-.39c.34-.38 1.32-.33.81-1.07a2.32 2.32 0 0 1 1 0 .77.77 0 0 1-.19.24zm2.36-3.27a3.59 3.59 0 0 0-.34 1l-.19-.25c-.39-.1-.17.41-.29.75.15.19.25.5-.07.5l-.25-.18c-.27-.06-.44.26-.62.62l-.21-.29a.81.81 0 0 1-.24-.53c0 .1 0 .18-.25.23l-.65-1.11c-.3.25.57.74.22 1.05-.55-.3-.85-.42-1.06-1 .28-.31.32.18.65.12-.54-.62.76-.08.12-.75.13-.38.48-.07.75-.08-.13.38.66.11.55.61.52-.19-.46-.55-.09-.74l.61.24c.31-.2.91-.64.72-1.2-.53.14-.29-.37-.66-.48.48.3-.09.56-.32.44 0-.31.2-1 .39-1.07l-.55.32c-.21-.3-.47-1.17-.55-1.23.34-.07.41-.38.77-.32l.26.55-.43-.05.37.42a2.18 2.18 0 0 1 1.29-.36c-.3.51-.39 1.46.17 2.95a.33.33 0 0 1-.1-.16z"/><path class="cls-1" d="M97.29 1.78c-.63-.37 0-1.06-.67-.86 0 .31.6.86 0 1.12-.29-.37-.49 0-.72-.12l.49 1a1.08 1.08 0 0 0-.36.94.44.44 0 0 1 .13-.37c.59.79-.63.63-.55 1.31l-.15-.37c-.35.32-.26.75-.16 1.19l-.48-.24c.64.36.45 1.11.58 1.35 0-1.18.92-.58.87-1.75a18.18 18.18 0 0 1 .92 1.66.35.35 0 0 1-.41.07c.13.16.35.32.5.51V1.75zm.02 13.34v-.56a1 1 0 0 0-.25.4.27.27 0 0 1 .25.16zm-7.67 10.43c.51.74-.47.69-.81 1.07L89 27a2.17 2.17 0 0 1 .38.07c-.27-1.24 1.58.31 1.09-1.3a.77.77 0 0 0 .22-.19 2.32 2.32 0 0 0-1.05-.03zM97.31 0zM88.5 33.84c-.39-.18.17-.5-.33-.55.11.19-.05.44.33.55zm-.67-.17l.06-.37-.25.12c.08.07.24.13.19.25zm-3.37-.13c.49 0 1.11-.7.4-1.06.21.31.32.49.16.74-1-.35 0-.56-.86-1.1-.33.44.42.99.3 1.42zm-.53-1.48l-.08-.37h-.06l.07.37h.07zm10.88-2.56c0 .06-.18.13-.07.31.26.12.1-.19.07-.31zm2.04-7.38l-.7-.05c0 .69.39 1.18.24 1.8.95-.45-.39-1.42.46-1.75zm-8.78-.65l-.2-.3.04.18.16.12zM87 20.68l-.24.2.19.24.05-.44zm4-.75l.07.31c0-.06.37-.24-.07-.31zm-.66-2.48c-.49-.05.1-.5-.42-.36-.07.31.2.3.42.36zm4.26-1.57c.27-.05.22-.14.2-.29-.06.11-.28.15-.2.29zm.76-1.69l-.09.09c-.15-.21-.15-.14 0 0 0 .12.1.17.19.23l.13.15-.11-.17c.06-.13.09-.25-.12-.3zM91 14.02l-.38-.49.02.12.36.37zm3.54-4.92c.74-.47-.58-.22-.27-.68a1 1 0 0 1-1 0c.26.51 1.2 0 1.27.68zm.18-2.43l.36.74c-.24-.49.16-1.24-.45-1.48a.59.59 0 0 0 0 .81zM97.26.66l-.32-.5c-.15.18.2.54.37.61V.59a.18.18 0 0 1-.05.07zm.05-.24v-.1s-.02.05 0 .1zM14.15 170.25c.11.12.22.26.34.38.04-.05-.06-.17-.34-.38zm7.14-9.25a.22.22 0 0 1 0-.08h-.13zm-.14-.08l-.47-.41a.71.71 0 0 0 .47.41zm-4.04 12.36a2 2 0 0 0 .47.64zm2.79.35a1.18 1.18 0 0 0 .3.1 1.27 1.27 0 0 0-.3-.1zm-12.14 5.98a.18.18 0 0 0-.1.15l.11.08c.16.06.05-.14-.01-.23zm.85.14v.17a.17.17 0 0 0 0-.17zm3.44 8.31l.51.34zm-5.3-10.22a4.64 4.64 0 0 0 .39.4c-.14-.15-.14-.24-.39-.4zm7.4-7.59l-.23-.17a.53.53 0 0 1 .23.17zm2.48 3.63c.02-.09-.01-.07 0 0zm6.67-17.15c-.3.12-.22.25 0 .4a1.38 1.38 0 0 0 0-.4z"/><path class="cls-1" d="M18 178.43c-.94-.74.3-1.26-.47-1.93.17.29.12.42-.27.43l-1.26-.77c.21-.3 1.15.67.6-.08-1.71-1-.27.43-.59.54a2.64 2.64 0 0 1-.69-.87c-.33.4-1.16.48.32 1.8a2.64 2.64 0 0 1-1.21-.78c.78.91-1.1-.34-.37.47-1.49-1-.41-1.15-1.13-2 1.48.34.64-.9.68-1.5 1.16.68 1.94 1.59 2.71 1.81 1 0-.35-.82-.85-1.47.6-.07 1.93 1.13 2.3.66l.56.75c1.8.69-.47-.67 0-.69-.46-.18-.88-.43-1-.15-.61-.34-.73-.68-.74-.81h-.09c-.72-.59-1.55-1.13-.95-1.21.83.78.88.19 1.37.38l.15.2c-.18-.43.11-.58 0-.84l.23.16c-.29-.42-1.44-1.2-1-1.3.47.32 1.58 1.41 1.54 1 .69.47.58.83.15.92.43-.09 1.68.49 1.56.85 1 .47-.21-.53.31-.44-.29-.14-.58-.38-.86-.54 1.23.74.46-.55-.39-1.08l.5.72c-1-.58-1.42-1.35-2-1.57 1.64.8-.28-1.28 1.14-.64l-.87-.37c.86-.34-.62-2-.61-2.82.32.45 1.68 1.33 1.41 1.55.7-.13 1.7.93 2.57 1.23.92-.08-1.43-1.2-1.88-1.67l.13.63c-1.72-1.61 1.17-.95.33-2.34.55.26.22.31.36.52 1.2.33 0-.41-.32-.83.34-.2 1-.28 2.15.66.51-.15-.78-.43-1.07-.84l.32.11-1.22-1.28a5.52 5.52 0 0 1 2.73.61c.17-.81-2.67-1.94-2.84-2.7.81.11.92.63 1.38.94l.14-.51c1.29 1 .39.93 2 1.88-1.42-1.35-.16-.77-.95-1.91l-.16-.05c-1-.89.1-.92.06-1.33.6.52.48.88.61 1.24.74 0 .69-1.11-.59-2.26a1.66 1.66 0 0 1 1.59.54c.63-.5-1.9-1.52-1.13-1.81l1.08.69c1.94.34-.68-2.06 1.09-1.77l-1.31-.84a13.11 13.11 0 0 1 1.61.39l.27.56c1.27.44-.89-.93.08-.76-.41-.24-1.46-.54-1.91-.81 0 1.69-2.64 1.76-2 3.82a1.72 1.72 0 0 1 .64.3c-.4-.06-.21.4-.9-.07l-.07-.11c.11.52-1.71-.18-1.81 0 .83.68-.79.44.86 1.24l-1.13-.28a11.26 11.26 0 0 1 1.52 1.16c-.26.14-.88-.22-1.17-.64a2.93 2.93 0 0 0-1.6 2.78l-.59-.68c-.49 0 .82 1.55-.93.24.48.88-1.24.85.69 2.06-2-.86-1.46.53-1.54 1.3 1.72.9.17.76.84 1.39-1.32-.69-1-1.3-1.86-1.82 1.62 1.82-2.47.82.67 3.08a.71.71 0 0 1-.43-.19c-.07.11-.73-.07-1 0 .53.41 1 .32 1 .73-.26.14-1.09-.53-1.57-.7.48.88.39 1.75 1.66 2.62a2.92 2.92 0 0 1-1.43-.7c.63 1.31-.59.53-.35 1.62.1-.27-1.33-1-.56-1-2-.86-.31 1.26-1.62 1.21l1.06.94c0 .46-1.15-.21-1.44-.71-1.08.12-.52.87-.79 1.3-.16-.06-.38-.22-.28-.26l-.42.6a5.87 5.87 0 0 0 1.52 1.25c-.64-.49-1-.87-.32-.94 1.66.87-.15.4 1.39 1.3-.22-.39-.39-.68.49-.27.78.68-.32.34 1 1.21l-.34-.59c.77.22 1.65 1.09 1.65.86-1.66-1.32 1.19-.38 1.08-.8l.11.19 1.09.12h.1l-.32-.21c.98.36 1.8.44 1.8-.02z"/><path class="cls-1" d="M18.17 168.88a.61.61 0 0 0-.18.05.26.26 0 0 0 .18-.05zm-7.72 8.71l-.14-.08.13.11zm7.91-2.75a2 2 0 0 0 .6.15 2.38 2.38 0 0 0-.6-.15z"/><path class="cls-1" d="M9.46 177.21c-1.05-.94-1.09-.12-2-.76.72.58.28.72.51 1.11l-.55-.29c-.77 0 .45 1 .24 1.31a1.59 1.59 0 0 1-.37-.18c.53.47 1.19 1 1.29 1.35v-.19c1.1 1 1.51 2.19 3.15 2.59l-.86.51c-1.34-.93-3.38-2.37-3.27-2.9l-.56-.41c-1-.15.53 1.58 1.84 2.09 3.16 2.36-.58 1.22.49 2.63-.94-.52-1.11-1-1.67-1.56 0-.23 0-.36.82.09-.07-1-3-1.61-2.16-2.21.7-.11 1.17 1.36 1.65.86l-2.28-1.94a2.69 2.69 0 0 0 .2 1.44c.69 2.62-1.41 2.9-1.41 2.9l-3.47 7.59c-.09 1-.36 1.16 2 3 .6.16.65-.44 1.42.24-.88-.64-1.22-1.23-.9-1.56.93.51.23.62.5.65h.11c.44.32.72.58.67.72 1.64.4 1.84-.59.29-1.95 1.15.21 1.27 1.1 1.88 1.72 1.46-.82 1.82-1.74 2.67-2.94-1.6-1-.94-.75-1.94-1.59l.66.25c-.32-.12-1.32-1-1.81-.92 1.69 0-1.62-2.15-2-3.07l.82.55a1.65 1.65 0 0 0-.06-1.34c2 .31-.1.73 2.05 1.79l-.23-.4a24.8 24.8 0 0 1 2.5 2.11c-1-1.44 1.08-.58.45-1.88a3.29 3.29 0 0 1 1.24 1.92c.23-.17-.19-1 .68-.49l-1.14-.75c.1-.5 1.05.71 1.87 1 .41-1.06-3.7-2.41-3.89-3.63 1.88 1-.06-.56.59-.54.12.43 1.22 1 1.77 1.29-2.15-1.74.71-.11.58-1 .78.45.73.81 1.55 1.36a4.35 4.35 0 0 0-1.67-2.25c.31-.57 1-.67 1-1.14.29.72 1.27.87 2.22 1.85-1.28-1.33-2.57-3.36-4.08-5.08a22.74 22.74 0 0 1 2.92 1.73c1.37-.08-1.22-1-.4-1.37l-.44.13c-.25-.56-1.6-1.4-2.5-2.07l-.25.86c-.98-.57-.55-.94-.72-1.23zm5.9-1.46a.49.49 0 0 0 .12-.34c-.17.05-.18.18-.12.34zm1.55 3.19a1.25 1.25 0 0 0-.4-.3zm1.09.88c-.56-.28-.5-.4-1.11-.88.32.35.11.67 1.11.88zm18.39-31.06c-.3-.26-.5-.73-.82-.84l.18.62zm-2.39.05l1.43 1.2c.21-.4-1-.88-.77-1.28zm-.83.4l-.33-.32a.81.81 0 0 0 .33.32zm.72.67c-.08-.1-.22-.31-.06-.25l1.06.83-.55-1-.34.05a4.33 4.33 0 0 0-.83-.32zm-2.89-.21a9 9 0 0 1 1.45 1.05c.66-.09-1-1.14-.29-1.13.61 1 .78.24 1.54.48a4 4 0 0 0-2.51-.65l.69.47c-.16.21-.53-.16-.88-.22zm-.78 1.42h-.82c1.3.85 1.08 1.41 2.14 1.53l-.89-.94c.55.27.84-.19 1.92.5 0-.26-.52-.58-.73-.88.64.21 1.11.37.44-.25-1.17.23-1.3-.13-2 .27-.23-.13-.15-.18-.06-.23zm-.97 1.41c.11-.2.14-.51 1.13.23.12-.36-.78-1.14-1.58-1.41zm-.16.82c0-.46 1.57.69 1-.14-.64-.18-1.98-.75-1 .14zm-1.4 1.5l1.09-.18c1.49.74.27.56.79 1.14.61-.35 0-.46-.6-1.39.18-.1-.41-.78-.7-1.19.67 1.49-2.81-.57-.58 1.62zm2.18-.36l-.53-.43.27.57.26-.14zm-5.08 2.14c-.07-.1-.23-.15-.37-.36l-.05.46-.39-.21c1 .58 1.19 1.19 1.87 1.82 1.29.28-1.14-.94.22-.56.41.36 1.06.83 1.39 1.13A8.22 8.22 0 0 0 26 157.5c0-.31.56.11.95.32-.43-.62-1.9-1.52-1.3-1.71 1 .27 1.29 1 1.19.33-1.72-.75.53-.3-.38-1.08a3.29 3.29 0 0 1 2.16.65 7.42 7.42 0 0 1-2.18-1.88l.55.93-1.57-.69c.5.72.24.87-.11 1.07l-.08-.1c-1.88-.65.55 1.28-.44 1.26zm1.67-2.47l-.15-.26a1.43 1.43 0 0 0 .15.26zm1 4.75a1.73 1.73 0 0 1 .19.28c.06-.03-.03-.16-.19-.28zm2.34-2.23l-.69-.47.22.31.47.16zm-1.94 2.82l.61.52-.15-.2c.09-.05-.32-.37-.46-.32zm-.66.09l-.96-.32.61.52.35-.2zm-6.49 6.1c-.43.25.86.53 1.05 1 .66.06-.35-.52-1.05-1zm-.6 6.53c.82.12 0-.72.19-1-.65-.03-.54.48-.19 1zm1.54 3.68L20 174.54c-.82 0 1.45 1.27 2.22 1.72-.22-.26-.35-.45-.57-.39zm-1 2.06l-.16.17a15.78 15.78 0 0 1-1.43-1.29 4.15 4.15 0 0 0 2 1.91zm-1.72-1.65a1.68 1.68 0 0 0 0 .2c.25.08.53.22 0-.2z"/><path class="cls-1" d="M18.88 176.64l.18.17a1.82 1.82 0 0 1-.11-.33c-.18-.07-.33-.11-.07.16zm1.18 1.83l-.2.76h.49c-1.05-.75.82.05-.29-.76zm-3 2.81l-1.1-.57c-.48.27 1.51 2.18-.35 1.38.76.22 1 1.08 1.59.77-.83-.78-.57-1.44-.14-1.58zm-2.49.57a2.35 2.35 0 0 0-.89-.42c-.21.07.18.53.67.72-1.35-.97.99.38.22-.3zm-1.06 1.96c.05-.14.05-.37-.33-.36-.16.4 1.11 1 1.72 1.65.82.09-.68-1.17-1.39-1.29zm-8.87-2.05c.11.2-.27.2-.7.11.93.52.98.13.7-.11zm6.85 4.78l.28.03-1.33-.97 1.05.94zm.18 3.43l.1-.5-.83-.32.73.82zm-1.21-.55l-.16.4.44.09c.38 0-.34-.36-.28-.49zm-.46 1.19c-.06-.09.11 0 .27 0l-.4-.61zm-10 2.26c.22.16 1.54.67.76 0s-.49.03-.76 0z"/></svg>